<svg width="56" height="56" viewBox="0 0 56 56" fill="none" xmlns="http://www.w3.org/2000/svg">
<g opacity="0.4">
<path d="M35.0003 28.0007C35.0003 24.1347 31.8663 21.0007 28.0003 21.0007C24.1343 21.0007 21.0003 24.1347 21.0003 28.0007C21.0003 31.8666 24.1343 35.0007 28.0003 35.0007C31.8663 35.0007 35.0003 31.8666 35.0003 28.0007Z" fill="#FFA206"/>
<path fill-rule="evenodd" clip-rule="evenodd" d="M40.6167 8.2626C41.2085 7.49844 42.3076 7.35867 43.0718 7.95042C46.1504 10.3344 48.6486 13.3591 50.3815 16.8071C52.1145 20.2552 53.0377 24.0383 53.082 27.8811C53.1263 31.7238 52.2904 35.5264 50.6371 39.0118C48.9839 42.4971 46.5557 45.5759 43.5324 48.0268C42.7816 48.6355 41.6796 48.5202 41.071 47.7694C40.4623 47.0187 40.5775 45.9166 41.3283 45.308C43.9499 43.1827 46.0485 40.5187 47.4748 37.5118C48.9011 34.505 49.6203 31.2291 49.5822 27.9214C49.5441 24.6137 48.7496 21.354 47.2543 18.3788C45.7588 15.4034 43.5991 12.7855 40.9289 10.7177C40.1647 10.126 40.025 9.02677 40.6167 8.2626Z" fill="#FFA206"/>
<path fill-rule="evenodd" clip-rule="evenodd" d="M15.384 8.2626C14.7922 7.49844 13.693 7.35867 12.9289 7.95042C9.85023 10.3344 7.35208 13.3591 5.61916 16.8071C3.88615 20.2552 2.96293 24.0383 2.91866 27.8811C2.8744 31.7238 3.71026 35.5264 5.36358 39.0118C7.01681 42.4971 9.44495 45.5759 12.4683 48.0268C13.219 48.6355 14.3211 48.5202 14.9297 47.7694C15.5384 47.0187 15.4231 45.9166 14.6723 45.308C12.0508 43.1827 9.9522 40.5187 8.52584 37.5118C7.09958 34.505 6.38033 31.2291 6.41843 27.9214C6.45653 24.6137 7.25106 21.354 8.7464 18.3788C10.2418 15.4034 12.4015 12.7855 15.0718 10.7177C15.836 10.126 15.9757 9.02677 15.384 8.2626Z" fill="#FFA206"/>
</g>
<path fill-rule="evenodd" clip-rule="evenodd" d="M28.0365 35.0013C29.003 35.0013 29.75 34.7917 29.75 34.7917V47.0499C29.75 47.8055 28.9665 48.418 28 48.418C27.0335 48.418 26.25 47.8055 26.25 47.0499V34.7917C26.25 34.7917 27.07 35.0013 28.0365 35.0013Z" fill="#FFA206"/>
<path fill-rule="evenodd" clip-rule="evenodd" d="M35.9546 17.5903C36.5498 16.8288 37.6496 16.6941 38.4111 17.2893C40.0517 18.5718 41.384 20.1885 42.3086 22.0287C43.2334 23.8692 43.7263 25.8858 43.7492 27.9351C43.7721 29.9844 43.3243 32.0109 42.4406 33.8705C41.5571 35.7298 40.2608 37.3741 38.6486 38.6903C37.9 39.3015 36.7975 39.1901 36.1863 38.4415C35.5751 37.6928 35.6865 36.5904 36.4351 35.9791C37.6532 34.9846 38.6224 33.7508 39.2794 32.3683C39.9362 30.9862 40.2663 29.4864 40.2494 27.9742C40.2325 26.462 39.869 24.969 39.1812 23.6C38.4932 22.2308 37.4962 21.0166 36.2556 20.0468C35.4941 19.4516 35.3594 18.3518 35.9546 17.5903Z" fill="#FFA206"/>
<path fill-rule="evenodd" clip-rule="evenodd" d="M20.0454 17.5903C19.4502 16.8288 18.3504 16.6941 17.5889 17.2893C15.9483 18.5718 14.616 20.1885 13.6914 22.0287C12.7667 23.8692 12.2737 25.8858 12.2508 27.9351C12.2279 29.9844 12.6757 32.0109 13.5594 33.8705C14.4429 35.7298 15.7392 37.3741 17.3514 38.6903C18.1001 39.3015 19.2025 39.1901 19.8137 38.4415C20.425 37.6928 20.3136 36.5904 19.5649 35.9791C18.3468 34.9846 17.3776 33.7508 16.7206 32.3683C16.0638 30.9862 15.7337 29.4864 15.7506 27.9742C15.7675 26.462 16.131 24.969 16.8189 23.6C17.5068 22.2308 18.5038 21.0166 19.7444 20.0468C20.5059 19.4516 20.6406 18.3518 20.0454 17.5903Z" fill="#FFA206"/>
</svg>
