<svg width="56" height="56" viewBox="0 0 56 56" fill="none" xmlns="http://www.w3.org/2000/svg">
<path d="M28.0007 7C30.578 7 32.6673 9.08934 32.6673 11.6667L32.6673 44.3333C32.6673 46.9107 30.578 49 28.0007 49C25.4233 49 23.334 46.9107 23.334 44.3333L23.334 11.6667C23.334 9.08934 25.4233 7 28.0007 7Z" fill="#FFA206"/>
<path opacity="0.4" d="M9.33366 28C11.911 28 14.0003 30.0893 14.0003 32.6667L14.0003 44.3333C14.0003 46.9107 11.911 49 9.33366 49C6.75633 49 4.66699 46.9107 4.66699 44.3333L4.66699 32.6667C4.66699 30.0893 6.75633 28 9.33366 28Z" fill="#FFA206"/>
<path opacity="0.4" d="M46.6667 18.666C49.244 18.666 51.3333 20.7554 51.3333 23.3327V44.3327C51.3333 46.91 49.244 48.9994 46.6667 48.9994C44.0893 48.9994 42 46.91 42 44.3327L42 23.3327C42 20.7554 44.0893 18.666 46.6667 18.666Z" fill="#FFA206"/>
</svg>
