<svg width="56" height="56" viewBox="0 0 56 56" fill="none" xmlns="http://www.w3.org/2000/svg">
<path opacity="0.4" d="M51.3337 27.9993C51.3337 40.886 40.887 51.3327 28.0003 51.3327C15.1137 51.3327 4.66699 40.886 4.66699 27.9993C4.66699 15.1127 15.1137 4.66602 28.0003 4.66602C40.887 4.66602 51.3337 15.1127 51.3337 27.9993Z" fill="#FFA206"/>
<path fill-rule="evenodd" clip-rule="evenodd" d="M38.4081 19.6187C39.171 20.2121 39.3084 21.3116 38.715 22.0745L29.3654 34.0955C27.91 35.9666 25.1725 36.2094 23.4106 34.6237L17.4963 29.3008C16.7779 28.6543 16.7197 27.5478 17.3662 26.8294C18.0128 26.111 19.1193 26.0528 19.8377 26.6993L25.752 32.0221C26.0037 32.2487 26.3947 32.214 26.6026 31.9467L35.9523 19.9257C36.5457 19.1628 37.6452 19.0253 38.4081 19.6187Z" fill="#FFA206"/>
</svg>
