<svg width="56" height="56" viewBox="0 0 56 56" fill="none" xmlns="http://www.w3.org/2000/svg">
<path opacity="0.4" d="M9.33366 21H4.66699V42L14.7256 47.0293C17.3176 48.3253 20.1757 49 23.0736 49H42.0003C44.5777 49 46.667 46.9107 46.667 44.3333C46.667 41.756 44.5777 39.6667 42.0003 39.6667H38.3053C36.1318 39.6667 33.9883 39.1606 32.0443 38.1886L25.1816 34.7573C25.6304 34.3441 26.0011 33.8316 26.2569 33.2346C27.2219 30.983 26.1899 28.3746 23.9456 27.3927L9.33366 21Z" fill="#FFA206"/>
<path fill-rule="evenodd" clip-rule="evenodd" d="M32.334 7C31.2294 7 30.334 7.89543 30.334 9V26C30.334 27.1046 31.2294 28 32.334 28H49.334C50.4386 28 51.334 27.1046 51.334 26V9C51.334 7.89543 50.4386 7 49.334 7H32.334ZM43.1673 15.75C44.1338 15.75 44.9173 14.9665 44.9173 14C44.9173 13.0335 44.1338 12.25 43.1673 12.25H38.5007C37.5342 12.25 36.7507 13.0335 36.7507 14C36.7507 14.9665 37.5342 15.75 38.5007 15.75H43.1673Z" fill="#FFA206"/>
</svg>
