<svg width="56" height="56" viewBox="0 0 56 56" fill="none" xmlns="http://www.w3.org/2000/svg">
<path opacity="0.4" d="M23.3337 7H14.0003C8.84567 7 4.66699 11.1787 4.66699 16.3333V35C4.66699 39.3522 7.64588 43.0086 11.676 44.0416C11.8266 41.6002 13.8543 39.6667 16.3337 39.6667C18.911 39.6667 21.0003 41.756 21.0003 44.3333H32.667V16.3333C32.667 11.1787 28.4883 7 23.3337 7Z" fill="#FFA206"/>
<path d="M32.667 44.334V16.334H40.1549C41.3405 16.334 42.4817 16.7853 43.3466 17.5961L49.8587 23.7012C50.7997 24.5834 51.3337 25.8158 51.3337 27.1057V39.6673C51.3337 42.2446 49.2443 44.334 46.667 44.334H32.667Z" fill="#FFA206"/>
<path d="M22.1667 44.3333C22.1667 47.555 19.555 50.1667 16.3333 50.1667C13.1117 50.1667 10.5 47.555 10.5 44.3333C10.5 44.2109 10.5038 44.0893 10.5112 43.9687C10.6995 40.9169 13.2341 38.5 16.3333 38.5C19.555 38.5 22.1667 41.1117 22.1667 44.3333Z" fill="#FFA206"/>
<path opacity="0.4" d="M47.8221 44.3333C47.8221 47.555 45.2104 50.1667 41.9888 50.1667C38.7671 50.1667 36.1555 47.555 36.1555 44.3333C36.1555 44.2109 36.1592 44.0893 36.1667 43.9687C36.3549 40.9169 38.8896 38.5 41.9888 38.5C45.2104 38.5 47.8221 41.1117 47.8221 44.3333Z" fill="#FFA206"/>
<path fill-rule="evenodd" clip-rule="evenodd" d="M16.917 18.666C16.917 17.6995 17.7005 16.916 18.667 16.916H23.3337C24.3002 16.916 25.0837 17.6995 25.0837 18.666C25.0837 19.6325 24.3002 20.416 23.3337 20.416H18.667C17.7005 20.416 16.917 19.6325 16.917 18.666Z" fill="#FFA206"/>
<path fill-rule="evenodd" clip-rule="evenodd" d="M12.25 28C12.25 27.0335 13.0335 26.25 14 26.25L23.3333 26.25C24.2998 26.25 25.0833 27.0335 25.0833 28C25.0833 28.9665 24.2998 29.75 23.3333 29.75L14 29.75C13.0335 29.75 12.25 28.9665 12.25 28Z" fill="#FFA206"/>
</svg>
