<svg width="56" height="56" viewBox="0 0 56 56" fill="none" xmlns="http://www.w3.org/2000/svg">
<path d="M46.6663 18.666V16.3327C46.6663 12.4667 43.5323 9.33268 39.6663 9.33268H33.1272C31.5684 9.33268 30.0542 8.81239 28.8246 7.85428L26.6303 6.14441C25.4007 5.18631 23.8865 4.66602 22.3277 4.66602H16.333C12.467 4.66602 9.33301 7.80002 9.33301 11.666V18.666H46.6663Z" fill="#FFA206"/>
<path opacity="0.4" d="M47.8941 18.666H8.10595C5.13494 18.666 2.92036 21.4054 3.54287 24.3105L7.7524 43.955C8.67454 48.2583 12.4775 51.3327 16.8786 51.3327H39.1215C43.5225 51.3327 47.3255 48.2583 48.2476 43.9549L52.4571 24.3105C53.0797 21.4054 50.8651 18.666 47.8941 18.666Z" fill="#FFA206"/>
</svg>
