<svg width="56" height="56" viewBox="0 0 56 56" fill="none" xmlns="http://www.w3.org/2000/svg">
<rect opacity="0.4" x="32.666" y="9.33398" width="14" height="14" rx="4" fill="#FFA206"/>
<rect opacity="0.4" x="32.666" y="32.668" width="14" height="14" rx="4" fill="#FFA206"/>
<path fill-rule="evenodd" clip-rule="evenodd" d="M21.1289 46.2386C18.5764 49.1101 14.0896 49.1101 11.5371 46.2386L8.02506 42.2875C7.38295 41.5651 7.44802 40.459 8.17039 39.8169C8.89276 39.1747 9.99889 39.2398 10.641 39.9622L14.1531 43.9133C14.2858 44.0626 14.43 44.1948 14.583 44.3099V11.6898C14.43 11.8049 14.2858 11.9371 14.1531 12.0864L10.641 16.0375C9.99889 16.7598 8.89276 16.8249 8.17039 16.1828C7.44802 15.5407 7.38295 14.4346 8.02506 13.7122L11.5371 9.76109C14.0896 6.88954 18.5764 6.88953 21.1289 9.76108L24.641 13.7122C25.2831 14.4346 25.218 15.5407 24.4957 16.1828C23.7733 16.8249 22.6672 16.7598 22.0251 16.0375L18.513 12.0864C18.3803 11.9371 18.2361 11.8049 18.083 11.6897V44.3099C18.2361 44.1948 18.3803 44.0626 18.513 43.9133L22.0251 39.9622C22.6672 39.2398 23.7733 39.1747 24.4957 39.8169C25.218 40.459 25.2831 41.5651 24.641 42.2875L21.1289 46.2386Z" fill="#FFA206"/>
</svg>
