<svg width="56" height="56" viewBox="0 0 56 56" fill="none" xmlns="http://www.w3.org/2000/svg">
<path opacity="0.4" d="M4.66699 23.5259C4.66699 20.4803 6.15296 17.6263 8.64801 15.8797L22.648 6.07975C25.8617 3.83019 30.139 3.83019 33.3526 6.07974L47.3526 15.8797C49.8477 17.6263 51.3337 20.4803 51.3337 23.5259V46.6665C51.3337 49.2438 49.2443 51.3331 46.667 51.3331H9.33366C6.75633 51.3331 4.66699 49.2438 4.66699 46.6665V23.5259Z" fill="#FFA206"/>
<path d="M37.3333 23.334H18.6667C16.0893 23.334 14 25.4233 14 28.0007V32.6673H42V28.0007C42 25.4233 39.9107 23.334 37.3333 23.334Z" fill="#FFA206"/>
<path d="M42 42H14V51.3333H42V42Z" fill="#FFA206"/>
</svg>
