<svg width="56" height="56" viewBox="0 0 56 56" fill="none" xmlns="http://www.w3.org/2000/svg">
<path opacity="0.4" fill-rule="evenodd" clip-rule="evenodd" d="M52.8334 45.2341C52.3361 46.0629 51.2611 46.3316 50.4324 45.8343L44.3306 42.1732C41.6125 40.5424 38.1669 40.7742 35.6917 42.7543L34.9231 43.3692C30.8753 46.6075 25.1235 46.6075 21.0757 43.3692L20.3071 42.7543C17.8319 40.7742 14.3863 40.5424 11.6683 42.1732L5.56644 45.8343C4.73768 46.3316 3.66272 46.0629 3.16546 45.2341C2.6682 44.4053 2.93694 43.3304 3.76571 42.8331L9.86752 39.172C13.8401 36.7885 18.876 37.1272 22.4935 40.0213L23.2621 40.6361C26.0317 42.8518 29.9671 42.8518 32.7367 40.6361L33.5053 40.0213C37.1228 37.1272 42.1588 36.7885 46.1313 39.172L52.2331 42.8331C53.0619 43.3304 53.3306 44.4053 52.8334 45.2341Z" fill="#FFA206"/>
<path fill-rule="evenodd" clip-rule="evenodd" d="M52.8334 31.2341C52.3361 32.0629 51.2611 32.3316 50.4324 31.8343L44.3306 28.1732C41.6125 26.5424 38.1669 26.7742 35.6917 28.7543L34.9231 29.3692C30.8753 32.6075 25.1235 32.6075 21.0757 29.3692L20.3071 28.7543C17.8319 26.7742 14.3863 26.5424 11.6683 28.1732L5.56644 31.8343C4.73768 32.3316 3.66272 32.0629 3.16546 31.2341C2.6682 30.4053 2.93694 29.3304 3.76571 28.8331L9.86752 25.172C13.8401 22.7885 18.876 23.1272 22.4935 26.0213L23.2621 26.6361C26.0317 28.8518 29.9671 28.8518 32.7367 26.6361L33.5053 26.0213C37.1228 23.1272 42.1588 22.7885 46.1313 25.172L52.2331 28.8331C53.0619 29.3304 53.3306 30.4053 52.8334 31.2341Z" fill="#FFA206"/>
<path opacity="0.4" fill-rule="evenodd" clip-rule="evenodd" d="M52.8334 17.2341C52.3361 18.0629 51.2611 18.3316 50.4324 17.8343L44.3306 14.1732C41.6125 12.5424 38.1669 12.7742 35.6917 14.7543L34.9231 15.3692C30.8753 18.6075 25.1235 18.6075 21.0757 15.3692L20.3071 14.7543C17.8319 12.7742 14.3863 12.5424 11.6683 14.1732L5.56644 17.8343C4.73768 18.3316 3.66272 18.0629 3.16546 17.2341C2.6682 16.4053 2.93694 15.3304 3.76571 14.8331L9.86752 11.172C13.8401 8.78849 18.876 9.12722 22.4935 12.0213L23.2621 12.6361C26.0317 14.8518 29.9671 14.8518 32.7367 12.6361L33.5053 12.0213C37.1228 9.12722 42.1588 8.7885 46.1313 11.172L52.2331 14.8331C53.0619 15.3304 53.3306 16.4053 52.8334 17.2341Z" fill="#FFA206"/>
</svg>
