<svg width="64" height="64" viewBox="0 0 64 64" fill="none" xmlns="http://www.w3.org/2000/svg">
<path d="M53.3333 21.334H48V53.334C48 56.2795 50.3878 58.6673 53.3333 58.6673C56.2789 58.6673 58.6667 56.2795 58.6667 53.334V26.6673C58.6667 23.7218 56.2789 21.334 53.3333 21.334Z" fill="#FFA206"/>
<path opacity="0.4" d="M39.9997 5.33398H13.333C8.91473 5.33398 5.33301 8.91571 5.33301 13.334V50.6673C5.33301 55.0856 8.91473 58.6673 13.333 58.6673H53.333C50.3875 58.6673 47.9997 56.2795 47.9997 53.334V13.334C47.9997 8.91571 44.418 5.33398 39.9997 5.33398Z" fill="#FFA206"/>
<path fill-rule="evenodd" clip-rule="evenodd" d="M14 18.666C14 17.5614 14.8954 16.666 16 16.666H37.3333C38.4379 16.666 39.3333 17.5614 39.3333 18.666C39.3333 19.7706 38.4379 20.666 37.3333 20.666H16C14.8954 20.666 14 19.7706 14 18.666Z" fill="#FFA206"/>
<path fill-rule="evenodd" clip-rule="evenodd" d="M14 32C14 30.8954 14.8954 30 16 30L37.3333 30C38.4379 30 39.3333 30.8954 39.3333 32C39.3333 33.1046 38.4379 34 37.3333 34L16 34C14.8954 34 14 33.1046 14 32Z" fill="#FFA206"/>
<path fill-rule="evenodd" clip-rule="evenodd" d="M14 45.334C14 44.2294 14.8954 43.334 16 43.334H26.6667C27.7712 43.334 28.6667 44.2294 28.6667 45.334C28.6667 46.4386 27.7712 47.334 26.6667 47.334H16C14.8954 47.334 14 46.4386 14 45.334Z" fill="#FFA206"/>
</svg>
