<svg width="813" height="759" viewBox="0 0 813 759" fill="none" xmlns="http://www.w3.org/2000/svg">
<g opacity="0.08">
<path d="M-265.032 309.096C-251.579 480.242 -123.415 704.313 55.502 659.167C221.387 617.31 142.69 495.164 281.985 414.63C421.281 334.094 571.299 506.87 702.176 397.882C778.139 334.622 795.866 211.852 730.3 101.342C664.741 -9.16567 515.896 -107.407 258.713 -121.621C15.7737 -135.043 -117.116 -52.2196 -188.295 46.3846C-259.474 144.995 -268.94 259.383 -265.032 309.096Z" stroke="url(#paint0_linear_796_8436)" stroke-width="0.87" stroke-miterlimit="10"/>
<path d="M250.001 -107.419C27.1966 -120.054 -95.4418 -44.6523 -161.49 45.7741C-226.954 135.711 -236.354 240.263 -233.217 286.811C-222.03 445.205 -104.588 652.887 60.8814 615.653C213.667 581.273 146.431 471.523 275.187 398.319C278.794 396.283 282.476 394.385 286.226 392.628C386.046 345.846 490.756 423.395 587.545 410.037C613.821 406.411 639.559 396.213 664.312 375.09C735.514 314.33 751.023 200.467 689.754 98.6691C628.073 -3.5642 488.563 -93.6822 250.001 -107.419Z" stroke="url(#paint1_linear_796_8436)" stroke-width="0.87" stroke-miterlimit="10"/>
<path d="M241.29 -93.2169C38.6202 -105.06 -73.7672 -37.0859 -134.685 45.1629C-194.434 126.426 -203.912 221.149 -201.401 264.522C-192.971 410.196 -85.7946 601.446 66.2619 572.136C205.918 545.218 149.943 447.473 268.391 382.007C271.806 380.12 275.238 378.414 278.669 376.842C371.292 334.297 467.912 400.941 556.273 385.995C580.404 381.914 603.991 372 626.454 352.295C692.89 294.012 706.182 189.079 649.208 95.9892C591.4 2.03035 461.224 -79.9523 241.29 -93.2169Z" stroke="url(#paint2_linear_796_8436)" stroke-width="0.87" stroke-miterlimit="10"/>
<path d="M232.578 -79.0097C50.0418 -90.0726 -52.3041 -29.6774 -107.882 44.557C-162.119 116.995 -171.389 202.028 -169.587 242.235C-163.626 375.16 -67.0448 549.984 71.6406 528.621C198.131 509.137 153.592 423.652 261.595 365.696C264.753 364.001 267.936 362.474 271.111 361.056C356.537 322.75 445.079 378.464 525 361.955C546.986 357.413 568.416 347.774 588.596 329.502C650.252 273.667 661.339 177.694 608.66 93.3147C554.725 7.63029 433.89 -66.229 232.578 -79.0097Z" stroke="url(#paint3_linear_796_8436)" stroke-width="0.87" stroke-miterlimit="10"/>
<path d="M223.867 -64.8062C61.487 -75.4154 -30.6888 -22.1515 -81.0772 43.9475C-129.654 107.675 -138.857 182.908 -137.771 219.951C-134.245 340.121 -48.3489 498.49 77.0204 485.11C190.297 473.019 157.263 399.86 254.798 349.389C257.702 347.886 260.633 346.538 263.554 345.274C341.783 311.206 422.26 355.959 493.728 337.917C513.569 332.908 532.83 323.534 550.732 306.712C607.597 253.289 616.696 166.188 568.114 90.6366C518.258 13.0997 406.581 -52.8723 223.867 -64.8062Z" stroke="url(#paint4_linear_796_8436)" stroke-width="0.87" stroke-miterlimit="10"/>
<path d="M215.155 -50.6107C72.9157 -60.482 -9.06462 -14.6336 -54.2722 43.3301C-97.1779 98.3481 -106.314 163.778 -105.955 197.66C-104.815 305.065 -29.7196 446.929 82.4013 441.59C182.406 436.828 160.961 376.093 248.003 333.073C250.653 331.763 253.332 330.595 255.998 329.484C327.03 299.654 399.453 333.404 462.456 313.872C480.159 308.384 497.227 299.266 512.875 283.914C564.919 232.855 571.885 154.775 527.568 87.9566C481.615 18.6699 379.255 -39.2212 215.155 -50.6107Z" stroke="url(#paint5_linear_796_8436)" stroke-width="0.87" stroke-miterlimit="10"/>
<path d="M206.446 -36.4017C84.3443 -45.5169 12.5741 -7.10226 -27.466 42.726C-64.6846 89.0401 -73.7539 144.651 -74.1381 175.375C-75.3235 270.007 -11.1677 395.268 87.7821 398.075C174.452 400.535 164.693 352.378 241.207 316.763C243.605 315.647 246.03 314.656 248.441 313.699C312.276 288.108 376.646 310.793 431.185 289.832C446.754 283.85 461.611 274.981 475.018 261.123C522.198 212.366 527.062 143.375 487.023 85.2779C444.966 24.2476 351.929 -25.5445 206.446 -36.4017Z" stroke="url(#paint6_linear_796_8436)" stroke-width="0.87" stroke-miterlimit="10"/>
<path d="M197.734 -22.201C95.7698 -30.5299 34.2337 0.438901 -0.6618 42.1137C-32.1697 79.742 -41.1695 125.518 -42.3229 153.087C-45.7461 234.94 6.82879 348.013 93.1622 354.56C166.849 360.147 168.467 328.73 234.411 300.451C236.557 299.531 238.729 298.716 240.885 297.912C297.522 276.559 353.825 288.099 399.918 265.789C413.343 259.291 425.964 250.663 437.159 238.327C479.397 191.789 482.219 131.984 446.476 82.603C408.292 29.8351 324.601 -11.8398 197.734 -22.201Z" stroke="url(#paint7_linear_796_8436)" stroke-width="0.87" stroke-miterlimit="10"/>
<path d="M189.022 -7.99908C107.192 -15.4933 55.9298 8.00555 26.1426 41.5027C0.38287 70.4754 -8.54808 106.386 -10.508 130.798C-16.0526 199.875 25.7789 291.267 98.5418 311.045C158.413 327.319 172.295 305.187 227.614 284.141C229.51 283.419 231.427 282.777 233.328 282.127C282.768 265.012 330.957 265.3 368.64 241.75C379.92 234.703 390.281 226.315 399.302 215.535C436.471 171.096 437.341 120.612 405.929 79.9233C371.594 35.442 297.268 1.91456 189.022 -7.99908Z" stroke="url(#paint8_linear_796_8436)" stroke-width="0.87" stroke-miterlimit="10"/>
<path d="M190.117 14.8474C120.071 8.3028 76.3326 27.2954 51.0187 54.5867C29.1276 78.1883 21.669 107.554 20.1162 127.545C15.7233 184.09 51.9763 259.151 114.329 275.711C165.633 289.336 177.398 271.279 224.618 254.315C226.237 253.733 227.873 253.217 229.497 252.694C271.707 238.921 312.941 239.395 345.059 220.294C354.671 214.579 363.492 207.759 371.153 198.974C402.734 162.762 403.217 121.418 376.138 87.9386C346.533 51.3386 282.777 23.5029 190.117 14.8474Z" stroke="url(#paint9_linear_796_8436)" stroke-width="0.87" stroke-miterlimit="10"/>
</g>
<defs>
<linearGradient id="paint0_linear_796_8436" x1="193.61" y1="691.202" x2="301.615" y2="-119.055" gradientUnits="userSpaceOnUse">
<stop stop-color="#EBEBEB"/>
<stop offset="1" stop-color="#EBEBEB" stop-opacity="0"/>
</linearGradient>
<linearGradient id="paint1_linear_796_8436" x1="192.614" y1="644.229" x2="292.426" y2="-104.564" gradientUnits="userSpaceOnUse">
<stop stop-color="#EBEBEB"/>
<stop offset="1" stop-color="#EBEBEB" stop-opacity="0"/>
</linearGradient>
<linearGradient id="paint2_linear_796_8436" x1="191.563" y1="597.353" x2="283.198" y2="-90.0869" gradientUnits="userSpaceOnUse">
<stop stop-color="#EBEBEB"/>
<stop offset="1" stop-color="#EBEBEB" stop-opacity="0"/>
</linearGradient>
<linearGradient id="paint3_linear_796_8436" x1="190.475" y1="550.608" x2="273.95" y2="-75.61" gradientUnits="userSpaceOnUse">
<stop stop-color="#EBEBEB"/>
<stop offset="1" stop-color="#EBEBEB" stop-opacity="0"/>
</linearGradient>
<linearGradient id="paint4_linear_796_8436" x1="189.394" y1="504.061" x2="264.746" y2="-61.2213" gradientUnits="userSpaceOnUse">
<stop stop-color="#EBEBEB"/>
<stop offset="1" stop-color="#EBEBEB" stop-opacity="0"/>
</linearGradient>
<linearGradient id="paint5_linear_796_8436" x1="188.226" y1="457.78" x2="255.483" y2="-46.7742" gradientUnits="userSpaceOnUse">
<stop stop-color="#EBEBEB"/>
<stop offset="1" stop-color="white" stop-opacity="0"/>
<stop offset="1" stop-color="#EBEBEB" stop-opacity="0"/>
</linearGradient>
<linearGradient id="paint6_linear_796_8436" x1="186.96" y1="411.942" x2="246.18" y2="-32.3196" gradientUnits="userSpaceOnUse">
<stop stop-color="#EBEBEB"/>
<stop offset="1" stop-color="#EBEBEB" stop-opacity="0"/>
</linearGradient>
<linearGradient id="paint7_linear_796_8436" x1="185.502" y1="367.036" x2="236.81" y2="-17.8793" gradientUnits="userSpaceOnUse">
<stop stop-color="#EBEBEB"/>
<stop offset="1" stop-color="#EBEBEB" stop-opacity="0"/>
</linearGradient>
<linearGradient id="paint8_linear_796_8436" x1="183.67" y1="324.055" x2="227.326" y2="-3.44369" gradientUnits="userSpaceOnUse">
<stop stop-color="#EBEBEB"/>
<stop offset="1" stop-color="#EBEBEB" stop-opacity="0"/>
</linearGradient>
<linearGradient id="paint9_linear_796_8436" x1="187.225" y1="286.788" x2="222.951" y2="18.7774" gradientUnits="userSpaceOnUse">
<stop stop-color="#EBEBEB"/>
<stop offset="1" stop-color="#EBEBEB" stop-opacity="0"/>
</linearGradient>
</defs>
</svg>
