<svg width="78" height="10" viewBox="0 0 78 10" fill="none" xmlns="http://www.w3.org/2000/svg"><path d="M4.33315 10C2.91502 10 1.8383 9.71569 1.10298 9.14706C0.367661 8.57843 0 7.7451 0 6.64706V6.5H1.94335V6.64706C1.94335 7.11765 2.15344 7.47549 2.57363 7.72059C2.99381 7.96569 3.60658 8.08823 4.41193 8.08823C5.12974 8.08823 5.67248 8.0049 6.04014 7.83823C6.41656 7.66176 6.60476 7.40686 6.60476 7.07353V6.97059C6.60476 6.70588 6.49972 6.5049 6.28963 6.36765C6.07953 6.22059 5.7075 6.10294 5.17351 6.01471L2.98068 5.66176C1.08985 5.34804 0.144438 4.47549 0.144438 3.04412V2.89706C0.144438 1.98529 0.498968 1.27451 1.20803 0.764706C1.92584 0.254902 2.92816 0 4.21497 0C5.58057 0 6.62227 0.27451 7.34009 0.823529C8.0579 1.37255 8.41681 2.16667 8.41681 3.20588V3.33824H6.47346V3.20588C6.47346 2.34314 5.72063 1.91176 4.21497 1.91176C3.54092 1.91176 3.02445 1.9902 2.66554 2.14706C2.31539 2.30392 2.14031 2.53431 2.14031 2.83824V2.95588C2.14031 3.18137 2.2366 3.35784 2.42919 3.48529C2.63053 3.61275 2.97192 3.71569 3.45339 3.79412L5.65935 4.14706C6.66604 4.31373 7.40574 4.61765 7.87845 5.05882C8.35991 5.4902 8.60064 6.09314 8.60064 6.86765V7.01471C8.60064 7.95588 8.2286 8.69118 7.48452 9.22059C6.74045 9.7402 5.68999 10 4.33315 10Z" fill="#00CD69"></path><path d="M18.8219 9.48529V9.82353H16.8523L16.0644 7.82353H11.7576L10.9697 9.82353H9.0001V9.48529L12.8211 0.176471H15.0008L18.8219 9.48529ZM15.316 5.91176L13.911 2.32353L12.506 5.91176H15.316Z" fill="#00CD69"></path><path d="M31.4475 9.82353H29.491V3.17647L26.7073 9.82353H24.7246L21.9409 3.14706V9.82353H19.9844V0.176471H22.7024L25.7225 7.33824L28.7294 0.176471H31.4475V9.82353Z" fill="#00CD69"></path><path d="M42.8278 10C41.4096 10 40.3329 9.71569 39.5976 9.14706C38.8623 8.57843 38.4946 7.7451 38.4946 6.64706V6.5H40.438V6.64706C40.438 7.11765 40.6481 7.47549 41.0682 7.72059C41.4884 7.96569 42.1012 8.08823 42.9065 8.08823C43.6244 8.08823 44.1671 8.0049 44.5348 7.83823C44.9112 7.66176 45.0994 7.40686 45.0994 7.07353V6.97059C45.0994 6.70588 44.9943 6.5049 44.7842 6.36765C44.5742 6.22059 44.2021 6.10294 43.6681 6.01471L41.4753 5.66176C39.5845 5.34804 38.6391 4.47549 38.6391 3.04412V2.89706C38.6391 1.98529 38.9936 1.27451 39.7026 0.764706C40.4205 0.254902 41.4228 0 42.7096 0C44.0752 0 45.1169 0.27451 45.8347 0.823529C46.5525 1.37255 46.9114 2.16667 46.9114 3.20588V3.33824H44.9681V3.20588C44.9681 2.34314 44.2152 1.91176 42.7096 1.91176C42.0355 1.91176 41.5191 1.9902 41.1602 2.14706C40.81 2.30392 40.6349 2.53431 40.6349 2.83824V2.95588C40.6349 3.18137 40.7312 3.35784 40.9238 3.48529C41.1251 3.61275 41.4665 3.71569 41.948 3.79412L44.154 4.14706C45.1607 4.31373 45.9004 4.61765 46.3731 5.05882C46.8545 5.4902 47.0953 6.09314 47.0953 6.86765V7.01471C47.0953 7.95588 46.7232 8.69118 45.9791 9.22059C45.2351 9.7402 44.1846 10 42.8278 10Z" fill="#00CD69"></path><path d="M57.3165 9.48529V9.82353H55.3469L54.5591 7.82353H50.2522L49.4643 9.82353H47.4947V9.48529L51.3158 0.176471H53.4955L57.3165 9.48529ZM53.8106 5.91176L52.4056 2.32353L51.0006 5.91176H53.8106Z" fill="#00CD69"></path><path d="M67.2241 3.45588C67.2241 4.2402 67.0008 4.88235 66.5544 5.38235C66.1167 5.88235 65.4908 6.19608 64.6767 6.32353L67.1847 9.48529V9.82353H64.9262L62.2475 6.36765H60.4486V9.82353H58.479V0.176471H63.9414C64.9656 0.176471 65.7666 0.455883 66.3443 1.01471C66.9308 1.56373 67.2241 2.32353 67.2241 3.29412V3.45588ZM65.2151 3.25C65.2151 2.88725 65.1013 2.61275 64.8737 2.42647C64.6548 2.23039 64.3266 2.13235 63.8889 2.13235H60.4486V4.54412H63.8889C64.3178 4.54412 64.6461 4.45098 64.8737 4.26471C65.1013 4.06863 65.2151 3.78431 65.2151 3.41176V3.25Z" fill="#00CD69"></path><path d="M78 9.48529V9.82353H76.0304L75.2425 7.82353H70.9357L70.1478 9.82353H68.1782V9.48529L71.9992 0.176471H74.1789L78 9.48529ZM74.4941 5.91176L73.0891 2.32353L71.6841 5.91176H74.4941Z" fill="#00CD69"></path></svg>