<svg width="56" height="56" viewBox="0 0 56 56" fill="none" xmlns="http://www.w3.org/2000/svg">
<path fill-rule="evenodd" clip-rule="evenodd" d="M10.3513 21.8969C9.33398 23.8934 9.33398 26.507 9.33398 31.7341C9.33398 36.9613 9.33398 39.5749 10.3513 41.5714C11.2461 43.3275 12.6739 44.7554 14.4301 45.6502C16.4266 46.6674 19.0402 46.6674 24.2673 46.6674H31.734C36.9611 46.6674 39.5747 46.6674 41.5712 45.6502C43.3274 44.7554 44.7552 43.3275 45.65 41.5714C46.6673 39.5749 46.6673 36.9613 46.6673 31.7341C46.6673 26.507 46.6673 23.8934 45.65 21.8969C44.7552 20.1407 43.3274 18.7129 41.5712 17.8181C39.5747 16.8008 36.9611 16.8008 31.734 16.8008H24.2673C19.0402 16.8008 16.4266 16.8008 14.4301 17.8181C12.6739 18.7129 11.2461 20.1407 10.3513 21.8969ZM33.7116 28.9332C34.2266 28.3565 34.1765 27.4714 33.5998 26.9565C33.023 26.4415 32.138 26.4916 31.623 27.0684L26.0007 33.3654L24.3783 31.5484C23.8633 30.9716 22.9783 30.9215 22.4016 31.4365C21.8248 31.9514 21.7747 32.8365 22.2897 33.4132L24.9564 36.3999C25.222 36.6974 25.6019 36.8675 26.0007 36.8675C26.3995 36.8675 26.7794 36.6974 27.045 36.3999L33.7116 28.9332Z" fill="white"/>
<path d="M43.9308 12.0657C41.1971 9.33203 36.7973 9.33203 27.9978 9.33203C19.1982 9.33203 14.7985 9.33203 12.0648 12.0657C10.6508 13.4797 9.9682 15.3394 9.63867 18.0232C10.6292 16.9206 11.8195 16.0022 13.156 15.3212C14.6148 14.5779 16.1768 14.2765 17.9063 14.1352C19.5772 13.9986 21.6332 13.9987 24.1472 13.9987H31.8484C34.3624 13.9987 36.4183 13.9986 38.0892 14.1352C39.8188 14.2765 41.3808 14.5779 42.8395 15.3212C44.1761 16.0022 45.3663 16.9206 46.3569 18.0232C46.0274 15.3394 45.3448 13.4797 43.9308 12.0657Z" fill="white"/>
</svg>
