<svg width="45" height="61" viewBox="0 0 45 61" fill="none" xmlns="http://www.w3.org/2000/svg">
<path d="M6.3 12.5588C9.77939 12.5588 12.6 9.74743 12.6 6.27941C12.6 2.81139 9.77939 0 6.3 0C2.82061 0 0 2.81139 0 6.27941C0 9.74743 2.82061 12.5588 6.3 12.5588Z" fill="#FFA206"/>
<path d="M6.3 28.7059C9.77939 28.7059 12.6 25.8945 12.6 22.4265C12.6 18.9584 9.77939 16.1471 6.3 16.1471C2.82061 16.1471 0 18.9584 0 22.4265C0 25.8945 2.82061 28.7059 6.3 28.7059Z" fill="#0068C9"/>
<path d="M6.3 44.8529C9.77939 44.8529 12.6 42.0415 12.6 38.5735C12.6 35.1055 9.77939 32.2941 6.3 32.2941C2.82061 32.2941 0 35.1055 0 38.5735C0 42.0415 2.82061 44.8529 6.3 44.8529Z" fill="#FFA206"/>
<path d="M22.5 12.5588C25.9794 12.5588 28.8 9.74743 28.8 6.27941C28.8 2.81139 25.9794 0 22.5 0C19.0206 0 16.2 2.81139 16.2 6.27941C16.2 9.74743 19.0206 12.5588 22.5 12.5588Z" fill="#0068C9"/>
<path d="M22.5 28.7059C25.9794 28.7059 28.8 25.8945 28.8 22.4265C28.8 18.9584 25.9794 16.1471 22.5 16.1471C19.0206 16.1471 16.2 18.9584 16.2 22.4265C16.2 25.8945 19.0206 28.7059 22.5 28.7059Z" fill="#0068C9"/>
<path d="M22.5 44.8529C25.9794 44.8529 28.8 42.0415 28.8 38.5735C28.8 35.1055 25.9794 32.2941 22.5 32.2941C19.0206 32.2941 16.2 35.1055 16.2 38.5735C16.2 42.0415 19.0206 44.8529 22.5 44.8529Z" fill="#0068C9"/>
<path d="M6.3 61C9.77939 61 12.6 58.1886 12.6 54.7206C12.6 51.2526 9.77939 48.4412 6.3 48.4412C2.82061 48.4412 0 51.2526 0 54.7206C0 58.1886 2.82061 61 6.3 61Z" fill="#FFA206"/>
<path d="M38.7 28.7059C42.1794 28.7059 45 25.8945 45 22.4265C45 18.9584 42.1794 16.1471 38.7 16.1471C35.2206 16.1471 32.4 18.9584 32.4 22.4265C32.4 25.8945 35.2206 28.7059 38.7 28.7059Z" fill="#0068C9"/>
</svg>
