<svg width="206" height="64" viewBox="0 0 206 64" fill="none" xmlns="http://www.w3.org/2000/svg">
<path d="M6.67303 13.1765C10.3584 13.1765 13.3461 10.2268 13.3461 6.58824C13.3461 2.94965 10.3584 0 6.67303 0C2.98762 0 0 2.94965 0 6.58824C0 10.2268 2.98762 13.1765 6.67303 13.1765Z" fill="#FFA206"/>
<path d="M6.67303 30.1176C10.3584 30.1176 13.3461 27.168 13.3461 23.5294C13.3461 19.8908 10.3584 16.9412 6.67303 16.9412C2.98762 16.9412 0 19.8908 0 23.5294C0 27.168 2.98762 30.1176 6.67303 30.1176Z" fill="white"/>
<path d="M6.67303 30.1176C10.3584 30.1176 13.3461 27.168 13.3461 23.5294C13.3461 19.8908 10.3584 16.9412 6.67303 16.9412C2.98762 16.9412 0 19.8908 0 23.5294C0 27.168 2.98762 30.1176 6.67303 30.1176Z" fill="url(#paint0_linear_1524_5218)"/>
<path d="M6.67303 47.0588C10.3584 47.0588 13.3461 44.1092 13.3461 40.4706C13.3461 36.832 10.3584 33.8824 6.67303 33.8824C2.98762 33.8824 0 36.832 0 40.4706C0 44.1092 2.98762 47.0588 6.67303 47.0588Z" fill="#FFA206"/>
<path d="M23.8322 13.1765C27.5177 13.1765 30.5053 10.2268 30.5053 6.58824C30.5053 2.94965 27.5177 0 23.8322 0C20.1468 0 17.1592 2.94965 17.1592 6.58824C17.1592 10.2268 20.1468 13.1765 23.8322 13.1765Z" fill="white"/>
<path d="M23.8322 13.1765C27.5177 13.1765 30.5053 10.2268 30.5053 6.58824C30.5053 2.94965 27.5177 0 23.8322 0C20.1468 0 17.1592 2.94965 17.1592 6.58824C17.1592 10.2268 20.1468 13.1765 23.8322 13.1765Z" fill="url(#paint1_linear_1524_5218)"/>
<path d="M23.8322 30.1176C27.5177 30.1176 30.5053 27.168 30.5053 23.5294C30.5053 19.8908 27.5177 16.9412 23.8322 16.9412C20.1468 16.9412 17.1592 19.8908 17.1592 23.5294C17.1592 27.168 20.1468 30.1176 23.8322 30.1176Z" fill="white"/>
<path d="M23.8322 30.1176C27.5177 30.1176 30.5053 27.168 30.5053 23.5294C30.5053 19.8908 27.5177 16.9412 23.8322 16.9412C20.1468 16.9412 17.1592 19.8908 17.1592 23.5294C17.1592 27.168 20.1468 30.1176 23.8322 30.1176Z" fill="url(#paint2_linear_1524_5218)"/>
<path d="M23.8322 47.0588C27.5177 47.0588 30.5053 44.1092 30.5053 40.4706C30.5053 36.832 27.5177 33.8824 23.8322 33.8824C20.1468 33.8824 17.1592 36.832 17.1592 40.4706C17.1592 44.1092 20.1468 47.0588 23.8322 47.0588Z" fill="white"/>
<path d="M23.8322 47.0588C27.5177 47.0588 30.5053 44.1092 30.5053 40.4706C30.5053 36.832 27.5177 33.8824 23.8322 33.8824C20.1468 33.8824 17.1592 36.832 17.1592 40.4706C17.1592 44.1092 20.1468 47.0588 23.8322 47.0588Z" fill="url(#paint3_linear_1524_5218)"/>
<path d="M6.67303 64C10.3584 64 13.3461 61.0503 13.3461 57.4118C13.3461 53.7732 10.3584 50.8235 6.67303 50.8235C2.98762 50.8235 0 53.7732 0 57.4118C0 61.0503 2.98762 64 6.67303 64Z" fill="#FFA206"/>
<path d="M40.9915 30.1176C44.6769 30.1176 47.6645 27.168 47.6645 23.5294C47.6645 19.8908 44.6769 16.9412 40.9915 16.9412C37.3061 16.9412 34.3184 19.8908 34.3184 23.5294C34.3184 27.168 37.3061 30.1176 40.9915 30.1176Z" fill="white"/>
<path d="M40.9915 30.1176C44.6769 30.1176 47.6645 27.168 47.6645 23.5294C47.6645 19.8908 44.6769 16.9412 40.9915 16.9412C37.3061 16.9412 34.3184 19.8908 34.3184 23.5294C34.3184 27.168 37.3061 30.1176 40.9915 30.1176Z" fill="url(#paint4_linear_1524_5218)"/>
<path d="M74.0215 28.5699V39.5294H70.5807V10.5331H78.6501C81.7905 10.5331 84.2209 11.288 85.9413 12.7978C87.6754 14.3076 88.5424 16.4375 88.5424 19.1875C88.5424 21.9375 87.5798 24.1887 85.6546 25.9412C83.743 27.6936 81.1556 28.5699 77.8924 28.5699H74.0215ZM74.0215 13.6066V25.4963H77.6261C80.0019 25.4963 81.811 24.9638 83.0535 23.8989C84.3097 22.8205 84.9378 21.3039 84.9378 19.3493C84.9378 15.5208 82.6439 13.6066 78.0562 13.6066H74.0215Z" fill="white"/>
<path d="M74.0215 28.5699V39.5294H70.5807V10.5331H78.6501C81.7905 10.5331 84.2209 11.288 85.9413 12.7978C87.6754 14.3076 88.5424 16.4375 88.5424 19.1875C88.5424 21.9375 87.5798 24.1887 85.6546 25.9412C83.743 27.6936 81.1556 28.5699 77.8924 28.5699H74.0215ZM74.0215 13.6066V25.4963H77.6261C80.0019 25.4963 81.811 24.9638 83.0535 23.8989C84.3097 22.8205 84.9378 21.3039 84.9378 19.3493C84.9378 15.5208 82.6439 13.6066 78.0562 13.6066H74.0215Z" fill="url(#paint5_linear_1524_5218)"/>
<path d="M100.851 40.0147C97.7519 40.0147 95.2738 39.0509 93.4168 37.1232C91.5735 35.182 90.6519 32.614 90.6519 29.4191C90.6519 25.9412 91.6145 23.2249 93.5397 21.2702C95.4649 19.3156 98.066 18.3382 101.343 18.3382C104.47 18.3382 106.907 19.2886 108.655 21.1893C110.416 23.0901 111.297 25.7255 111.297 29.0956C111.297 32.3983 110.348 35.0472 108.45 37.0423C106.566 39.0239 104.033 40.0147 100.851 40.0147ZM101.097 21.1287C98.9398 21.1287 97.2331 21.8566 95.9769 23.3125C94.7208 24.7549 94.0927 26.75 94.0927 29.2978C94.0927 31.7512 94.7276 33.6857 95.9974 35.1011C97.2672 36.5165 98.9671 37.2243 101.097 37.2243C103.268 37.2243 104.934 36.53 106.094 35.1415C107.269 33.7531 107.856 31.7782 107.856 29.2169C107.856 26.6287 107.269 24.6336 106.094 23.2316C104.934 21.8297 103.268 21.1287 101.097 21.1287Z" fill="white"/>
<path d="M100.851 40.0147C97.7519 40.0147 95.2738 39.0509 93.4168 37.1232C91.5735 35.182 90.6519 32.614 90.6519 29.4191C90.6519 25.9412 91.6145 23.2249 93.5397 21.2702C95.4649 19.3156 98.066 18.3382 101.343 18.3382C104.47 18.3382 106.907 19.2886 108.655 21.1893C110.416 23.0901 111.297 25.7255 111.297 29.0956C111.297 32.3983 110.348 35.0472 108.45 37.0423C106.566 39.0239 104.033 40.0147 100.851 40.0147ZM101.097 21.1287C98.9398 21.1287 97.2331 21.8566 95.9769 23.3125C94.7208 24.7549 94.0927 26.75 94.0927 29.2978C94.0927 31.7512 94.7276 33.6857 95.9974 35.1011C97.2672 36.5165 98.9671 37.2243 101.097 37.2243C103.268 37.2243 104.934 36.53 106.094 35.1415C107.269 33.7531 107.856 31.7782 107.856 29.2169C107.856 26.6287 107.269 24.6336 106.094 23.2316C104.934 21.8297 103.268 21.1287 101.097 21.1287Z" fill="url(#paint6_linear_1524_5218)"/>
<path d="M120.021 39.5294H116.663V8.875H120.021V39.5294Z" fill="white"/>
<path d="M120.021 39.5294H116.663V8.875H120.021V39.5294Z" fill="url(#paint7_linear_1524_5218)"/>
<path d="M128.541 13.5662C127.941 13.5662 127.429 13.364 127.005 12.9596C126.582 12.5551 126.37 12.0429 126.37 11.4228C126.37 10.8027 126.582 10.2904 127.005 9.88603C127.429 9.46814 127.941 9.25919 128.541 9.25919C129.156 9.25919 129.675 9.46814 130.098 9.88603C130.535 10.2904 130.753 10.8027 130.753 11.4228C130.753 12.0159 130.535 12.5214 130.098 12.9393C129.675 13.3572 129.156 13.5662 128.541 13.5662ZM130.18 39.5294H126.821V18.8235H130.18V39.5294Z" fill="white"/>
<path d="M128.541 13.5662C127.941 13.5662 127.429 13.364 127.005 12.9596C126.582 12.5551 126.37 12.0429 126.37 11.4228C126.37 10.8027 126.582 10.2904 127.005 9.88603C127.429 9.46814 127.941 9.25919 128.541 9.25919C129.156 9.25919 129.675 9.46814 130.098 9.88603C130.535 10.2904 130.753 10.8027 130.753 11.4228C130.753 12.0159 130.535 12.5214 130.098 12.9393C129.675 13.3572 129.156 13.5662 128.541 13.5662ZM130.18 39.5294H126.821V18.8235H130.18V39.5294Z" fill="url(#paint8_linear_1524_5218)"/>
<path d="M166.759 39.5294H163.4V27.6397C163.4 25.348 163.038 23.69 162.314 22.6654C161.604 21.6409 160.403 21.1287 158.71 21.1287C157.276 21.1287 156.054 21.7757 155.044 23.0699C154.047 24.364 153.549 25.9142 153.549 27.7206V39.5294H150.19V27.2353C150.19 23.1642 148.599 21.1287 145.418 21.1287C143.943 21.1287 142.728 21.742 141.772 22.9688C140.816 24.182 140.338 25.7659 140.338 27.7206V39.5294H136.98V18.8235H140.338V22.0993H140.42C141.909 19.5919 144.08 18.3382 146.933 18.3382C148.367 18.3382 149.616 18.7359 150.681 19.5312C151.746 20.3131 152.477 21.3444 152.873 22.625C154.429 19.7672 156.75 18.3382 159.836 18.3382C164.451 18.3382 166.759 21.1489 166.759 26.7702V39.5294Z" fill="white"/>
<path d="M166.759 39.5294H163.4V27.6397C163.4 25.348 163.038 23.69 162.314 22.6654C161.604 21.6409 160.403 21.1287 158.71 21.1287C157.276 21.1287 156.054 21.7757 155.044 23.0699C154.047 24.364 153.549 25.9142 153.549 27.7206V39.5294H150.19V27.2353C150.19 23.1642 148.599 21.1287 145.418 21.1287C143.943 21.1287 142.728 21.742 141.772 22.9688C140.816 24.182 140.338 25.7659 140.338 27.7206V39.5294H136.98V18.8235H140.338V22.0993H140.42C141.909 19.5919 144.08 18.3382 146.933 18.3382C148.367 18.3382 149.616 18.7359 150.681 19.5312C151.746 20.3131 152.477 21.3444 152.873 22.625C154.429 19.7672 156.75 18.3382 159.836 18.3382C164.451 18.3382 166.759 21.1489 166.759 26.7702V39.5294Z" fill="url(#paint9_linear_1524_5218)"/>
<path d="M189.964 30.0055H175.156C175.21 32.3107 175.839 34.0901 177.04 35.3438C178.242 36.5974 179.894 37.2243 181.996 37.2243C184.359 37.2243 186.53 36.4559 188.509 34.9191V38.0331C186.666 39.3542 184.229 40.0147 181.198 40.0147C178.235 40.0147 175.907 39.0778 174.214 37.204C172.521 35.3168 171.674 32.6679 171.674 29.2574C171.674 26.0355 172.596 23.4136 174.439 21.3915C176.296 19.356 178.597 18.3382 181.341 18.3382C184.085 18.3382 186.209 19.2145 187.711 20.9669C189.213 22.7194 189.964 25.1526 189.964 28.2665V30.0055ZM186.523 27.1949C186.509 25.2806 186.038 23.7911 185.11 22.7261C184.195 21.6612 182.918 21.1287 181.28 21.1287C179.696 21.1287 178.351 21.6881 177.245 22.807C176.139 23.9259 175.456 25.3885 175.197 27.1949H186.523Z" fill="white"/>
<path d="M189.964 30.0055H175.156C175.21 32.3107 175.839 34.0901 177.04 35.3438C178.242 36.5974 179.894 37.2243 181.996 37.2243C184.359 37.2243 186.53 36.4559 188.509 34.9191V38.0331C186.666 39.3542 184.229 40.0147 181.198 40.0147C178.235 40.0147 175.907 39.0778 174.214 37.204C172.521 35.3168 171.674 32.6679 171.674 29.2574C171.674 26.0355 172.596 23.4136 174.439 21.3915C176.296 19.356 178.597 18.3382 181.341 18.3382C184.085 18.3382 186.209 19.2145 187.711 20.9669C189.213 22.7194 189.964 25.1526 189.964 28.2665V30.0055ZM186.523 27.1949C186.509 25.2806 186.038 23.7911 185.11 22.7261C184.195 21.6612 182.918 21.1287 181.28 21.1287C179.696 21.1287 178.351 21.6881 177.245 22.807C176.139 23.9259 175.456 25.3885 175.197 27.1949H186.523Z" fill="url(#paint10_linear_1524_5218)"/>
<path d="M206 22.1801C205.413 21.7353 204.566 21.5129 203.46 21.5129C202.027 21.5129 200.825 22.1801 199.856 23.5147C198.9 24.8493 198.422 26.6691 198.422 28.9743V39.5294H195.063V18.8235H198.422V23.0901H198.504C198.982 21.6342 199.712 20.5018 200.695 19.693C201.679 18.8707 202.778 18.4596 203.993 18.4596C204.867 18.4596 205.536 18.5539 206 18.7426V22.1801Z" fill="white"/>
<path d="M206 22.1801C205.413 21.7353 204.566 21.5129 203.46 21.5129C202.027 21.5129 200.825 22.1801 199.856 23.5147C198.9 24.8493 198.422 26.6691 198.422 28.9743V39.5294H195.063V18.8235H198.422V23.0901H198.504C198.982 21.6342 199.712 20.5018 200.695 19.693C201.679 18.8707 202.778 18.4596 203.993 18.4596C204.867 18.4596 205.536 18.5539 206 18.7426V22.1801Z" fill="url(#paint11_linear_1524_5218)"/>
<path d="M77.9659 59.4412C76.7929 60.1085 75.335 60.4421 73.5923 60.4421C71.6597 60.4421 70.1348 59.9154 69.0176 58.8621C67.9061 57.8033 67.3503 56.3474 67.3503 54.4945C67.3503 52.6305 67.9591 51.1112 69.1768 49.9366C70.3945 48.7619 72.0144 48.1746 74.0364 48.1746C75.3099 48.1746 76.4326 48.3483 77.4045 48.6958V51.2022C76.4773 50.6728 75.3434 50.4081 74.0029 50.4081C72.8801 50.4081 71.9641 50.7693 71.2547 51.4917C70.5509 52.2086 70.199 53.1682 70.199 54.3704C70.199 55.5892 70.5146 56.5322 71.1458 57.1995C71.7826 57.8667 72.64 58.2004 73.718 58.2004C74.3659 58.2004 74.8798 58.1094 75.2596 57.9274V55.6112H72.855V53.477H77.9659V59.4412Z" fill="white"/>
<path d="M77.9659 59.4412C76.7929 60.1085 75.335 60.4421 73.5923 60.4421C71.6597 60.4421 70.1348 59.9154 69.0176 58.8621C67.9061 57.8033 67.3503 56.3474 67.3503 54.4945C67.3503 52.6305 67.9591 51.1112 69.1768 49.9366C70.3945 48.7619 72.0144 48.1746 74.0364 48.1746C75.3099 48.1746 76.4326 48.3483 77.4045 48.6958V51.2022C76.4773 50.6728 75.3434 50.4081 74.0029 50.4081C72.8801 50.4081 71.9641 50.7693 71.2547 51.4917C70.5509 52.2086 70.199 53.1682 70.199 54.3704C70.199 55.5892 70.5146 56.5322 71.1458 57.1995C71.7826 57.8667 72.64 58.2004 73.718 58.2004C74.3659 58.2004 74.8798 58.1094 75.2596 57.9274V55.6112H72.855V53.477H77.9659V59.4412Z" fill="url(#paint12_linear_1524_5218)"/>
<path d="M90.3829 60.2353H87.2744L85.406 57.1829C85.2664 56.9513 85.1323 56.7445 85.0039 56.5625C84.8754 56.3805 84.7441 56.2261 84.6101 56.0993C84.4816 55.9669 84.3447 55.8676 84.1995 55.8015C84.0599 55.7298 83.9063 55.6939 83.7387 55.6939H83.0098V60.2353H80.3035V48.3732H84.5933C87.509 48.3732 88.9669 49.4485 88.9669 51.5993C88.9669 52.0129 88.9027 52.3961 88.7742 52.7491C88.6457 53.0965 88.4642 53.4108 88.2296 53.6921C87.995 53.9733 87.7101 54.216 87.375 54.42C87.0454 54.6241 86.6768 54.784 86.269 54.8998V54.9329C86.4478 54.9881 86.6209 55.079 86.7885 55.2059C86.9561 55.3272 87.118 55.4706 87.2744 55.636C87.4308 55.8015 87.5789 55.9807 87.7185 56.1737C87.8637 56.3612 87.995 56.546 88.1123 56.7279L90.3829 60.2353ZM83.0098 50.375V53.6755H84.1828C84.7637 53.6755 85.2301 53.5101 85.582 53.1792C85.9395 52.8428 86.1182 52.4265 86.1182 51.9301C86.1182 50.8934 85.4898 50.375 84.233 50.375H83.0098Z" fill="white"/>
<path d="M90.3829 60.2353H87.2744L85.406 57.1829C85.2664 56.9513 85.1323 56.7445 85.0039 56.5625C84.8754 56.3805 84.7441 56.2261 84.6101 56.0993C84.4816 55.9669 84.3447 55.8676 84.1995 55.8015C84.0599 55.7298 83.9063 55.6939 83.7387 55.6939H83.0098V60.2353H80.3035V48.3732H84.5933C87.509 48.3732 88.9669 49.4485 88.9669 51.5993C88.9669 52.0129 88.9027 52.3961 88.7742 52.7491C88.6457 53.0965 88.4642 53.4108 88.2296 53.6921C87.995 53.9733 87.7101 54.216 87.375 54.42C87.0454 54.6241 86.6768 54.784 86.269 54.8998V54.9329C86.4478 54.9881 86.6209 55.079 86.7885 55.2059C86.9561 55.3272 87.118 55.4706 87.2744 55.636C87.4308 55.8015 87.5789 55.9807 87.7185 56.1737C87.8637 56.3612 87.995 56.546 88.1123 56.7279L90.3829 60.2353ZM83.0098 50.375V53.6755H84.1828C84.7637 53.6755 85.2301 53.5101 85.582 53.1792C85.9395 52.8428 86.1182 52.4265 86.1182 51.9301C86.1182 50.8934 85.4898 50.375 84.233 50.375H83.0098Z" fill="url(#paint13_linear_1524_5218)"/>
<path d="M96.4238 60.4421C94.7034 60.4421 93.3014 59.8906 92.2178 58.7877C91.1341 57.6792 90.5923 56.2371 90.5923 54.4614C90.5923 52.5864 91.1425 51.0699 92.2429 49.9118C93.3433 48.7537 94.8012 48.1746 96.6165 48.1746C98.3313 48.1746 99.7166 48.7289 100.772 49.8373C101.834 50.9458 102.364 52.4072 102.364 54.2215C102.364 56.0855 101.814 57.5882 100.714 58.7298C99.6188 59.8713 98.1889 60.4421 96.4238 60.4421ZM96.5411 50.4743C95.5915 50.4743 94.8375 50.8272 94.2789 51.5331C93.7203 52.2335 93.441 53.1627 93.441 54.3208C93.441 55.4954 93.7203 56.4246 94.2789 57.1085C94.8375 57.7923 95.5692 58.1342 96.4741 58.1342C97.4069 58.1342 98.147 57.8033 98.6944 57.1415C99.2418 56.4743 99.5155 55.5506 99.5155 54.3704C99.5155 53.1406 99.2501 52.1838 98.7195 51.5C98.1889 50.8162 97.4627 50.4743 96.5411 50.4743Z" fill="white"/>
<path d="M96.4238 60.4421C94.7034 60.4421 93.3014 59.8906 92.2178 58.7877C91.1341 57.6792 90.5923 56.2371 90.5923 54.4614C90.5923 52.5864 91.1425 51.0699 92.2429 49.9118C93.3433 48.7537 94.8012 48.1746 96.6165 48.1746C98.3313 48.1746 99.7166 48.7289 100.772 49.8373C101.834 50.9458 102.364 52.4072 102.364 54.2215C102.364 56.0855 101.814 57.5882 100.714 58.7298C99.6188 59.8713 98.1889 60.4421 96.4238 60.4421ZM96.5411 50.4743C95.5915 50.4743 94.8375 50.8272 94.2789 51.5331C93.7203 52.2335 93.441 53.1627 93.441 54.3208C93.441 55.4954 93.7203 56.4246 94.2789 57.1085C94.8375 57.7923 95.5692 58.1342 96.4741 58.1342C97.4069 58.1342 98.147 57.8033 98.6944 57.1415C99.2418 56.4743 99.5155 55.5506 99.5155 54.3704C99.5155 53.1406 99.2501 52.1838 98.7195 51.5C98.1889 50.8162 97.4627 50.4743 96.5411 50.4743Z" fill="url(#paint14_linear_1524_5218)"/>
<path d="M114.161 55.0983C114.161 58.6608 112.48 60.4421 109.117 60.4421C105.855 60.4421 104.224 58.7022 104.224 55.2224V48.3732H106.939V55.2555C106.939 57.1746 107.698 58.1342 109.218 58.1342C110.709 58.1342 111.455 57.2077 111.455 55.3548V48.3732H114.161V55.0983Z" fill="white"/>
<path d="M114.161 55.0983C114.161 58.6608 112.48 60.4421 109.117 60.4421C105.855 60.4421 104.224 58.7022 104.224 55.2224V48.3732H106.939V55.2555C106.939 57.1746 107.698 58.1342 109.218 58.1342C110.709 58.1342 111.455 57.2077 111.455 55.3548V48.3732H114.161V55.0983Z" fill="url(#paint15_linear_1524_5218)"/>
<path d="M119.49 56.1489V60.2353H116.784V48.3732H121.023C124.051 48.3732 125.564 49.6333 125.564 52.1535C125.564 53.3447 125.129 54.3097 124.257 55.0487C123.391 55.7822 122.232 56.1489 120.78 56.1489H119.49ZM119.49 50.4246V54.1222H120.554C121.995 54.1222 122.716 53.4991 122.716 52.2528C122.716 51.034 121.995 50.4246 120.554 50.4246H119.49Z" fill="white"/>
<path d="M119.49 56.1489V60.2353H116.784V48.3732H121.023C124.051 48.3732 125.564 49.6333 125.564 52.1535C125.564 53.3447 125.129 54.3097 124.257 55.0487C123.391 55.7822 122.232 56.1489 120.78 56.1489H119.49ZM119.49 50.4246V54.1222H120.554C121.995 54.1222 122.716 53.4991 122.716 52.2528C122.716 51.034 121.995 50.4246 120.554 50.4246H119.49Z" fill="url(#paint16_linear_1524_5218)"/>
<path d="M142.631 60.2353H139.682L138.827 57.5965H134.554L133.708 60.2353H130.776L135.149 48.3732H138.358L142.631 60.2353ZM138.207 55.545L136.917 51.5579C136.822 51.2601 136.755 50.9044 136.716 50.4908H136.649C136.621 50.8382 136.551 51.1829 136.44 51.5248L135.133 55.545H138.207Z" fill="white"/>
<path d="M142.631 60.2353H139.682L138.827 57.5965H134.554L133.708 60.2353H130.776L135.149 48.3732H138.358L142.631 60.2353ZM138.207 55.545L136.917 51.5579C136.822 51.2601 136.755 50.9044 136.716 50.4908H136.649C136.621 50.8382 136.551 51.1829 136.44 51.5248L135.133 55.545H138.207Z" fill="url(#paint17_linear_1524_5218)"/>
<path d="M143.578 59.7803V57.1333C144.064 57.5358 144.592 57.8392 145.162 58.0432C145.731 58.2417 146.307 58.341 146.888 58.341C147.228 58.341 147.524 58.3107 147.776 58.25C148.033 58.1893 148.245 58.1066 148.413 58.0018C148.586 57.8915 148.714 57.7647 148.798 57.6213C148.882 57.4724 148.924 57.3125 148.924 57.1415C148.924 56.9099 148.857 56.7031 148.723 56.5211C148.588 56.3392 148.404 56.171 148.17 56.0165C147.941 55.8621 147.667 55.7132 147.348 55.5699C147.03 55.4265 146.687 55.2803 146.318 55.1314C145.38 54.7454 144.679 54.2739 144.215 53.7169C143.757 53.1599 143.528 52.4871 143.528 51.6985C143.528 51.0809 143.654 50.5515 143.905 50.1103C144.156 49.6636 144.497 49.2969 144.927 49.0101C145.363 48.7233 145.865 48.5138 146.435 48.3814C147.005 48.2436 147.608 48.1746 148.245 48.1746C148.871 48.1746 149.424 48.2132 149.904 48.2904C150.39 48.3621 150.837 48.4752 151.244 48.6296V51.1029C151.043 50.9651 150.823 50.8437 150.583 50.739C150.348 50.6342 150.105 50.5487 149.854 50.4825C149.602 50.4108 149.351 50.3585 149.1 50.3254C148.854 50.2923 148.619 50.2757 148.396 50.2757C148.089 50.2757 147.809 50.3061 147.558 50.3667C147.307 50.4219 147.094 50.5018 146.921 50.6066C146.748 50.7114 146.614 50.8382 146.519 50.9871C146.424 51.1305 146.377 51.2932 146.377 51.4752C146.377 51.6737 146.43 51.8529 146.536 52.0129C146.642 52.1673 146.793 52.3162 146.988 52.4596C147.184 52.5974 147.421 52.7353 147.7 52.8732C147.98 53.0055 148.295 53.1434 148.647 53.2868C149.127 53.4853 149.558 53.6976 149.937 53.9237C150.323 54.1443 150.652 54.3952 150.926 54.6765C151.2 54.9577 151.409 55.2803 151.554 55.6443C151.7 56.0028 151.772 56.4219 151.772 56.9017C151.772 57.5634 151.644 58.1204 151.387 58.5726C151.136 59.0193 150.792 59.3833 150.356 59.6645C149.921 59.9403 149.412 60.1388 148.831 60.2601C148.256 60.3814 147.647 60.4421 147.005 60.4421C146.346 60.4421 145.717 60.387 145.12 60.2767C144.528 60.1664 144.014 60.0009 143.578 59.7803Z" fill="white"/>
<path d="M143.578 59.7803V57.1333C144.064 57.5358 144.592 57.8392 145.162 58.0432C145.731 58.2417 146.307 58.341 146.888 58.341C147.228 58.341 147.524 58.3107 147.776 58.25C148.033 58.1893 148.245 58.1066 148.413 58.0018C148.586 57.8915 148.714 57.7647 148.798 57.6213C148.882 57.4724 148.924 57.3125 148.924 57.1415C148.924 56.9099 148.857 56.7031 148.723 56.5211C148.588 56.3392 148.404 56.171 148.17 56.0165C147.941 55.8621 147.667 55.7132 147.348 55.5699C147.03 55.4265 146.687 55.2803 146.318 55.1314C145.38 54.7454 144.679 54.2739 144.215 53.7169C143.757 53.1599 143.528 52.4871 143.528 51.6985C143.528 51.0809 143.654 50.5515 143.905 50.1103C144.156 49.6636 144.497 49.2969 144.927 49.0101C145.363 48.7233 145.865 48.5138 146.435 48.3814C147.005 48.2436 147.608 48.1746 148.245 48.1746C148.871 48.1746 149.424 48.2132 149.904 48.2904C150.39 48.3621 150.837 48.4752 151.244 48.6296V51.1029C151.043 50.9651 150.823 50.8437 150.583 50.739C150.348 50.6342 150.105 50.5487 149.854 50.4825C149.602 50.4108 149.351 50.3585 149.1 50.3254C148.854 50.2923 148.619 50.2757 148.396 50.2757C148.089 50.2757 147.809 50.3061 147.558 50.3667C147.307 50.4219 147.094 50.5018 146.921 50.6066C146.748 50.7114 146.614 50.8382 146.519 50.9871C146.424 51.1305 146.377 51.2932 146.377 51.4752C146.377 51.6737 146.43 51.8529 146.536 52.0129C146.642 52.1673 146.793 52.3162 146.988 52.4596C147.184 52.5974 147.421 52.7353 147.7 52.8732C147.98 53.0055 148.295 53.1434 148.647 53.2868C149.127 53.4853 149.558 53.6976 149.937 53.9237C150.323 54.1443 150.652 54.3952 150.926 54.6765C151.2 54.9577 151.409 55.2803 151.554 55.6443C151.7 56.0028 151.772 56.4219 151.772 56.9017C151.772 57.5634 151.644 58.1204 151.387 58.5726C151.136 59.0193 150.792 59.3833 150.356 59.6645C149.921 59.9403 149.412 60.1388 148.831 60.2601C148.256 60.3814 147.647 60.4421 147.005 60.4421C146.346 60.4421 145.717 60.387 145.12 60.2767C144.528 60.1664 144.014 60.0009 143.578 59.7803Z" fill="url(#paint18_linear_1524_5218)"/>
<path d="M156.456 60.2353H153.75V48.3732H156.456V60.2353Z" fill="white"/>
<path d="M156.456 60.2353H153.75V48.3732H156.456V60.2353Z" fill="url(#paint19_linear_1524_5218)"/>
<path d="M169.761 60.2353H166.812L165.957 57.5965H161.684L160.838 60.2353H157.905L162.279 48.3732H165.488L169.761 60.2353ZM165.337 55.545L164.047 51.5579C163.952 51.2601 163.885 50.9044 163.846 50.4908H163.779C163.751 50.8382 163.681 51.1829 163.569 51.5248L162.262 55.545H165.337Z" fill="white"/>
<path d="M169.761 60.2353H166.812L165.957 57.5965H161.684L160.838 60.2353H157.905L162.279 48.3732H165.488L169.761 60.2353ZM165.337 55.545L164.047 51.5579C163.952 51.2601 163.885 50.9044 163.846 50.4908H163.779C163.751 50.8382 163.681 51.1829 163.569 51.5248L162.262 55.545H165.337Z" fill="url(#paint20_linear_1524_5218)"/>
<defs>
<linearGradient id="paint0_linear_1524_5218" x1="8.70254" y1="3.14124e-05" x2="216.461" y2="48.8049" gradientUnits="userSpaceOnUse">
<stop stop-color="#083661"/>
<stop offset="1" stop-color="#0657A3"/>
</linearGradient>
<linearGradient id="paint1_linear_1524_5218" x1="8.70254" y1="3.14124e-05" x2="216.461" y2="48.8049" gradientUnits="userSpaceOnUse">
<stop stop-color="#083661"/>
<stop offset="1" stop-color="#0657A3"/>
</linearGradient>
<linearGradient id="paint2_linear_1524_5218" x1="8.70254" y1="3.14124e-05" x2="216.461" y2="48.8049" gradientUnits="userSpaceOnUse">
<stop stop-color="#083661"/>
<stop offset="1" stop-color="#0657A3"/>
</linearGradient>
<linearGradient id="paint3_linear_1524_5218" x1="8.70254" y1="3.14124e-05" x2="216.461" y2="48.8049" gradientUnits="userSpaceOnUse">
<stop stop-color="#083661"/>
<stop offset="1" stop-color="#0657A3"/>
</linearGradient>
<linearGradient id="paint4_linear_1524_5218" x1="8.70254" y1="3.14124e-05" x2="216.461" y2="48.8049" gradientUnits="userSpaceOnUse">
<stop stop-color="#083661"/>
<stop offset="1" stop-color="#0657A3"/>
</linearGradient>
<linearGradient id="paint5_linear_1524_5218" x1="8.70254" y1="3.14124e-05" x2="216.461" y2="48.8049" gradientUnits="userSpaceOnUse">
<stop stop-color="#083661"/>
<stop offset="1" stop-color="#0657A3"/>
</linearGradient>
<linearGradient id="paint6_linear_1524_5218" x1="8.70254" y1="3.14124e-05" x2="216.461" y2="48.8049" gradientUnits="userSpaceOnUse">
<stop stop-color="#083661"/>
<stop offset="1" stop-color="#0657A3"/>
</linearGradient>
<linearGradient id="paint7_linear_1524_5218" x1="8.70254" y1="3.14124e-05" x2="216.461" y2="48.8049" gradientUnits="userSpaceOnUse">
<stop stop-color="#083661"/>
<stop offset="1" stop-color="#0657A3"/>
</linearGradient>
<linearGradient id="paint8_linear_1524_5218" x1="8.70254" y1="3.14124e-05" x2="216.461" y2="48.8049" gradientUnits="userSpaceOnUse">
<stop stop-color="#083661"/>
<stop offset="1" stop-color="#0657A3"/>
</linearGradient>
<linearGradient id="paint9_linear_1524_5218" x1="8.70254" y1="3.14124e-05" x2="216.461" y2="48.8049" gradientUnits="userSpaceOnUse">
<stop stop-color="#083661"/>
<stop offset="1" stop-color="#0657A3"/>
</linearGradient>
<linearGradient id="paint10_linear_1524_5218" x1="8.70254" y1="3.14124e-05" x2="216.461" y2="48.8049" gradientUnits="userSpaceOnUse">
<stop stop-color="#083661"/>
<stop offset="1" stop-color="#0657A3"/>
</linearGradient>
<linearGradient id="paint11_linear_1524_5218" x1="8.70254" y1="3.14124e-05" x2="216.461" y2="48.8049" gradientUnits="userSpaceOnUse">
<stop stop-color="#083661"/>
<stop offset="1" stop-color="#0657A3"/>
</linearGradient>
<linearGradient id="paint12_linear_1524_5218" x1="8.70254" y1="3.14124e-05" x2="216.461" y2="48.8049" gradientUnits="userSpaceOnUse">
<stop stop-color="#083661"/>
<stop offset="1" stop-color="#0657A3"/>
</linearGradient>
<linearGradient id="paint13_linear_1524_5218" x1="8.70254" y1="3.14124e-05" x2="216.461" y2="48.8049" gradientUnits="userSpaceOnUse">
<stop stop-color="#083661"/>
<stop offset="1" stop-color="#0657A3"/>
</linearGradient>
<linearGradient id="paint14_linear_1524_5218" x1="8.70254" y1="3.14124e-05" x2="216.461" y2="48.8049" gradientUnits="userSpaceOnUse">
<stop stop-color="#083661"/>
<stop offset="1" stop-color="#0657A3"/>
</linearGradient>
<linearGradient id="paint15_linear_1524_5218" x1="8.70254" y1="3.14124e-05" x2="216.461" y2="48.8049" gradientUnits="userSpaceOnUse">
<stop stop-color="#083661"/>
<stop offset="1" stop-color="#0657A3"/>
</linearGradient>
<linearGradient id="paint16_linear_1524_5218" x1="8.70254" y1="3.14124e-05" x2="216.461" y2="48.8049" gradientUnits="userSpaceOnUse">
<stop stop-color="#083661"/>
<stop offset="1" stop-color="#0657A3"/>
</linearGradient>
<linearGradient id="paint17_linear_1524_5218" x1="8.70254" y1="3.14124e-05" x2="216.461" y2="48.8049" gradientUnits="userSpaceOnUse">
<stop stop-color="#083661"/>
<stop offset="1" stop-color="#0657A3"/>
</linearGradient>
<linearGradient id="paint18_linear_1524_5218" x1="8.70254" y1="3.14124e-05" x2="216.461" y2="48.8049" gradientUnits="userSpaceOnUse">
<stop stop-color="#083661"/>
<stop offset="1" stop-color="#0657A3"/>
</linearGradient>
<linearGradient id="paint19_linear_1524_5218" x1="8.70254" y1="3.14124e-05" x2="216.461" y2="48.8049" gradientUnits="userSpaceOnUse">
<stop stop-color="#083661"/>
<stop offset="1" stop-color="#0657A3"/>
</linearGradient>
<linearGradient id="paint20_linear_1524_5218" x1="8.70254" y1="3.14124e-05" x2="216.461" y2="48.8049" gradientUnits="userSpaceOnUse">
<stop stop-color="#083661"/>
<stop offset="1" stop-color="#0657A3"/>
</linearGradient>
</defs>
</svg>
