<svg width="122" height="38" viewBox="0 0 122 38" fill="none" xmlns="http://www.w3.org/2000/svg">
<path d="M3.95199 7.82353C6.13461 7.82353 7.90398 6.07217 7.90398 3.91176C7.90398 1.75136 6.13461 0 3.95199 0C1.76937 0 0 1.75136 0 3.91176C0 6.07217 1.76937 7.82353 3.95199 7.82353Z" fill="#FFA206"/>
<path d="M3.95199 17.8824C6.13461 17.8824 7.90398 16.131 7.90398 13.9706C7.90398 11.8102 6.13461 10.0588 3.95199 10.0588C1.76937 10.0588 0 11.8102 0 13.9706C0 16.131 1.76937 17.8824 3.95199 17.8824Z" fill="white"/>
<path d="M3.95199 27.9412C6.13461 27.9412 7.90398 26.1898 7.90398 24.0294C7.90398 21.869 6.13461 20.1176 3.95199 20.1176C1.76937 20.1176 0 21.869 0 24.0294C0 26.1898 1.76937 27.9412 3.95199 27.9412Z" fill="#FFA206"/>
<path d="M14.1142 7.82353C16.2969 7.82353 18.0662 6.07217 18.0662 3.91176C18.0662 1.75136 16.2969 0 14.1142 0C11.9316 0 10.1623 1.75136 10.1623 3.91176C10.1623 6.07217 11.9316 7.82353 14.1142 7.82353Z" fill="white"/>
<path d="M14.1142 17.8824C16.2969 17.8824 18.0662 16.131 18.0662 13.9706C18.0662 11.8102 16.2969 10.0588 14.1142 10.0588C11.9316 10.0588 10.1623 11.8102 10.1623 13.9706C10.1623 16.131 11.9316 17.8824 14.1142 17.8824Z" fill="white"/>
<path d="M14.1142 27.9412C16.2969 27.9412 18.0662 26.1898 18.0662 24.0294C18.0662 21.869 16.2969 20.1176 14.1142 20.1176C11.9316 20.1176 10.1623 21.869 10.1623 24.0294C10.1623 26.1898 11.9316 27.9412 14.1142 27.9412Z" fill="white"/>
<path d="M3.95199 38C6.13461 38 7.90398 36.2486 7.90398 34.0882C7.90398 31.9278 6.13461 30.1765 3.95199 30.1765C1.76937 30.1765 0 31.9278 0 34.0882C0 36.2486 1.76937 38 3.95199 38Z" fill="#FFA206"/>
<path d="M24.2765 17.8824C26.4591 17.8824 28.2285 16.131 28.2285 13.9706C28.2285 11.8102 26.4591 10.0588 24.2765 10.0588C22.0939 10.0588 20.3245 11.8102 20.3245 13.9706C20.3245 16.131 22.0939 17.8824 24.2765 17.8824Z" fill="white"/>
<path d="M43.838 16.9634V23.4706H41.8002V6.25402H46.5792C48.4391 6.25402 49.8784 6.70224 50.8973 7.59869C51.9242 8.49514 52.4377 9.75977 52.4377 11.3926C52.4377 13.0254 51.8676 14.3621 50.7275 15.4026C49.5954 16.4431 48.063 16.9634 46.1304 16.9634H43.838ZM43.838 8.07893V15.1384H45.9727C47.3798 15.1384 48.4512 14.8223 49.187 14.19C49.931 13.5497 50.3029 12.6492 50.3029 11.4886C50.3029 9.21549 48.9445 8.07893 46.2275 8.07893H43.838Z" fill="white"/>
<path d="M59.7275 23.7587C57.8919 23.7587 56.4243 23.1864 55.3245 22.0419C54.2329 20.8893 53.6871 19.3645 53.6871 17.4676C53.6871 15.4026 54.2571 13.7898 55.3973 12.6292C56.5375 11.4686 58.0779 10.8883 60.0186 10.8883C61.8704 10.8883 63.3138 11.4526 64.3488 12.5812C65.392 13.7097 65.9135 15.2745 65.9135 17.2755C65.9135 19.2365 65.3515 20.8093 64.2275 21.9939C63.1116 23.1704 61.6116 23.7587 59.7275 23.7587ZM59.8731 12.5452C58.5954 12.5452 57.5846 12.9774 56.8407 13.8418C56.0968 14.6982 55.7248 15.8828 55.7248 17.3956C55.7248 18.8523 56.1008 20.0009 56.8528 20.8413C57.6049 21.6817 58.6116 22.1019 59.8731 22.1019C61.1588 22.1019 62.1453 21.6897 62.8326 20.8653C63.5281 20.0409 63.8758 18.8683 63.8758 17.3475C63.8758 15.8108 63.5281 14.6262 62.8326 13.7938C62.1453 12.9614 61.1588 12.5452 59.8731 12.5452Z" fill="white"/>
<path d="M71.0807 23.4706H69.0914V5.26953H71.0807V23.4706Z" fill="white"/>
<path d="M76.1265 8.05492C75.7707 8.05492 75.4675 7.93486 75.2168 7.69474C74.9661 7.45462 74.8408 7.15047 74.8408 6.78228C74.8408 6.4141 74.9661 6.10995 75.2168 5.86983C75.4675 5.62171 75.7707 5.49764 76.1265 5.49764C76.4904 5.49764 76.7977 5.62171 77.0483 5.86983C77.3071 6.10995 77.4365 6.4141 77.4365 6.78228C77.4365 7.13446 77.3071 7.43461 77.0483 7.68273C76.7977 7.93086 76.4904 8.05492 76.1265 8.05492ZM77.0969 23.4706H75.1076V11.1765H77.0969V23.4706Z" fill="white"/>
<path d="M98.76 23.4706H96.7708V16.4111C96.7708 15.0504 96.5565 14.0659 96.1279 13.4576C95.7074 12.8493 94.9958 12.5452 93.9931 12.5452C93.1441 12.5452 92.4204 12.9293 91.822 13.6977C91.2317 14.4661 90.9365 15.3866 90.9365 16.4591V23.4706H88.9473V16.171C88.9473 13.7538 88.0052 12.5452 86.1211 12.5452C85.2478 12.5452 84.5282 12.9093 83.9621 13.6377C83.3961 14.3581 83.1131 15.2985 83.1131 16.4591V23.4706H81.1238V11.1765H83.1131V13.1214H83.1616C84.043 11.6327 85.3287 10.8883 87.0187 10.8883C87.8678 10.8883 88.6077 11.1244 89.2384 11.5967C89.8691 12.0609 90.3018 12.6732 90.5363 13.4336C91.4581 11.7367 92.8328 10.8883 94.6603 10.8883C97.3934 10.8883 98.76 12.5572 98.76 15.8948V23.4706Z" fill="white"/>
<path d="M112.503 17.8158H103.733C103.765 19.1845 104.137 20.241 104.849 20.9854C105.561 21.7297 106.539 22.1019 107.784 22.1019C109.183 22.1019 110.469 21.6457 111.641 20.7332V22.5821C110.55 23.3665 109.106 23.7587 107.311 23.7587C105.557 23.7587 104.178 23.2025 103.175 22.0899C102.172 20.9693 101.671 19.3966 101.671 17.3716C101.671 15.4586 102.217 13.9018 103.309 12.7012C104.408 11.4926 105.771 10.8883 107.396 10.8883C109.022 10.8883 110.279 11.4086 111.168 12.4491C112.058 13.4896 112.503 14.9343 112.503 16.7833V17.8158ZM110.465 16.1469C110.457 15.0104 110.178 14.1259 109.628 13.4936C109.086 12.8613 108.33 12.5452 107.36 12.5452C106.422 12.5452 105.625 12.8773 104.97 13.5416C104.315 14.206 103.911 15.0744 103.757 16.1469H110.465Z" fill="white"/>
<path d="M122 13.1695C121.652 12.9053 121.151 12.7733 120.496 12.7733C119.647 12.7733 118.935 13.1695 118.361 13.9619C117.795 14.7543 117.512 15.8348 117.512 17.2035V23.4706H115.523V11.1765H117.512V13.7097H117.561C117.844 12.8453 118.276 12.173 118.858 11.6927C119.441 11.2045 120.092 10.9604 120.811 10.9604C121.329 10.9604 121.725 11.0164 122 11.1284V13.1695Z" fill="white"/>
<path d="M46.174 35.2932C45.4793 35.6894 44.6159 35.8875 43.5838 35.8875C42.4392 35.8875 41.5361 35.5748 40.8745 34.9494C40.2162 34.3207 39.8871 33.4563 39.8871 32.3561C39.8871 31.2494 40.2477 30.3473 40.9688 29.6498C41.6899 28.9524 42.6493 28.6037 43.8468 28.6037C44.601 28.6037 45.2659 28.7068 45.8415 28.9131V30.4013C45.2924 30.087 44.6209 29.9298 43.8269 29.9298C43.162 29.9298 42.6195 30.1443 42.1994 30.5732C41.7826 30.9989 41.5742 31.5686 41.5742 32.2824C41.5742 33.0061 41.7611 33.566 42.1349 33.9622C42.512 34.3584 43.0198 34.5565 43.6582 34.5565C44.042 34.5565 44.3463 34.5024 44.5712 34.3944V33.0192H43.1471V31.752H46.174V35.2932Z" fill="white"/>
<path d="M53.5277 35.7647H51.6868L50.5803 33.9524C50.4976 33.8148 50.4182 33.692 50.3421 33.584C50.266 33.4759 50.1883 33.3842 50.1089 33.3089C50.0328 33.2304 49.9517 33.1714 49.8657 33.1321C49.783 33.0896 49.6921 33.0683 49.5928 33.0683H49.1611V35.7647H47.5584V28.7216H50.0989C51.8257 28.7216 52.6891 29.3601 52.6891 30.6371C52.6891 30.8826 52.6511 31.1102 52.575 31.3198C52.4989 31.5261 52.3914 31.7127 52.2525 31.8797C52.1135 32.0467 51.9448 32.1907 51.7463 32.3119C51.5512 32.433 51.3328 32.528 51.0914 32.5968V32.6164C51.1972 32.6492 51.2998 32.7032 51.399 32.7785C51.4982 32.8505 51.5942 32.9357 51.6868 33.0339C51.7794 33.1321 51.8671 33.2385 51.9498 33.3531C52.0358 33.4645 52.1135 33.5742 52.183 33.6822L53.5277 35.7647ZM49.1611 29.9102V31.8699H49.8558C50.1998 31.8699 50.4761 31.7716 50.6845 31.5752C50.8962 31.3754 51.002 31.1282 51.002 30.8335C51.002 30.2179 50.6299 29.9102 49.8856 29.9102H49.1611Z" fill="white"/>
<path d="M57.1054 35.8875C56.0865 35.8875 55.2562 35.5601 54.6144 34.9052C53.9726 34.247 53.6518 33.3908 53.6518 32.3365C53.6518 31.2232 53.9776 30.3227 54.6293 29.6351C55.281 28.9475 56.1444 28.6037 57.2195 28.6037C58.235 28.6037 59.0554 28.9328 59.6806 29.5909C60.3092 30.2491 60.6234 31.1168 60.6234 32.194C60.6234 33.3008 60.2976 34.193 59.6459 34.8708C58.9975 35.5486 58.1507 35.8875 57.1054 35.8875ZM57.1748 29.9691C56.6125 29.9691 56.1659 30.1787 55.8351 30.5978C55.5043 31.0136 55.3389 31.5653 55.3389 32.253C55.3389 32.9504 55.5043 33.5021 55.8351 33.9081C56.1659 34.3142 56.5992 34.5172 57.1351 34.5172C57.6876 34.5172 58.1259 34.3207 58.4501 33.9278C58.7743 33.5316 58.9363 32.9831 58.9363 32.2824C58.9363 31.5522 58.7792 30.9841 58.465 30.5781C58.1507 30.1721 57.7206 29.9691 57.1748 29.9691Z" fill="white"/>
<path d="M67.61 32.7146C67.61 34.8299 66.6143 35.8875 64.6228 35.8875C62.691 35.8875 61.725 34.8544 61.725 32.7883V28.7216H63.3327V32.808C63.3327 33.9474 63.7826 34.5172 64.6824 34.5172C65.5656 34.5172 66.0072 33.9671 66.0072 32.8669V28.7216H67.61V32.7146Z" fill="white"/>
<path d="M70.7658 33.3384V35.7647H69.1631V28.7216H71.6739C73.4669 28.7216 74.3633 29.4698 74.3633 30.9661C74.3633 31.6734 74.1053 32.2464 73.5892 32.6852C73.0765 33.1207 72.3901 33.3384 71.53 33.3384H70.7658ZM70.7658 29.9396V32.1351H71.396C72.2495 32.1351 72.6762 31.7651 72.6762 31.0251C72.6762 30.3014 72.2495 29.9396 71.396 29.9396H70.7658Z" fill="white"/>
<path d="M84.471 35.7647H82.7244L82.2182 34.1979H79.6876L79.1864 35.7647H77.4497L80.0399 28.7216H81.9404L84.471 35.7647ZM81.851 32.9799L81.0869 30.6125C81.0306 30.4357 80.991 30.2245 80.9678 29.9789H80.9281C80.9116 30.1852 80.8702 30.3898 80.804 30.5929L80.03 32.9799H81.851Z" fill="white"/>
<path d="M85.0317 35.4946V33.9229C85.3195 34.1619 85.6321 34.342 85.9695 34.4632C86.3069 34.581 86.6477 34.64 86.9917 34.64C87.1935 34.64 87.3688 34.622 87.5177 34.5859C87.6699 34.5499 87.7956 34.5008 87.8948 34.4386C87.9974 34.3731 88.0734 34.2978 88.1231 34.2127C88.1727 34.1243 88.1975 34.0293 88.1975 33.9278C88.1975 33.7903 88.1578 33.6675 88.0784 33.5594C87.999 33.4514 87.8898 33.3515 87.7509 33.2598C87.6153 33.1681 87.4532 33.0797 87.2646 32.9946C87.0761 32.9095 86.8726 32.8227 86.6543 32.7343C86.0985 32.5051 85.6834 32.2251 85.4088 31.8944C85.1376 31.5637 85.0019 31.1642 85.0019 30.696C85.0019 30.3293 85.0764 30.0149 85.2252 29.753C85.3741 29.4878 85.5759 29.27 85.8306 29.0998C86.0886 28.9295 86.3863 28.8051 86.7238 28.7265C87.0612 28.6446 87.4184 28.6037 87.7956 28.6037C88.1661 28.6037 88.4936 28.6266 88.778 28.6724C89.0658 28.715 89.3305 28.7821 89.572 28.8738V30.3424C89.4529 30.2605 89.3222 30.1885 89.18 30.1263C89.041 30.0641 88.8971 30.0133 88.7483 29.974C88.5994 29.9314 88.4506 29.9003 88.3017 29.8807C88.1561 29.861 88.0172 29.8512 87.8849 29.8512C87.7029 29.8512 87.5375 29.8692 87.3887 29.9052C87.2398 29.938 87.1141 29.9855 87.0116 30.0477C86.909 30.1099 86.8296 30.1852 86.7734 30.2736C86.7171 30.3587 86.689 30.4553 86.689 30.5634C86.689 30.6813 86.7205 30.7877 86.7833 30.8826C86.8462 30.9743 86.9355 31.0627 87.0513 31.1479C87.167 31.2297 87.3076 31.3116 87.473 31.3934C87.6384 31.472 87.8253 31.5539 88.0337 31.639C88.3182 31.7569 88.5729 31.883 88.7979 32.0172C89.0261 32.1482 89.2213 32.2972 89.3834 32.4642C89.5455 32.6311 89.6696 32.8227 89.7556 33.0388C89.8416 33.2516 89.8846 33.5005 89.8846 33.7854C89.8846 34.1783 89.8085 34.509 89.6563 34.7775C89.5075 35.0427 89.304 35.2588 89.046 35.4258C88.788 35.5895 88.4869 35.7074 88.1429 35.7794C87.8022 35.8515 87.4416 35.8875 87.0612 35.8875C86.6708 35.8875 86.2987 35.8548 85.9447 35.7893C85.5941 35.7238 85.2897 35.6255 85.0317 35.4946Z" fill="white"/>
<path d="M92.6584 35.7647H91.0556V28.7216H92.6584V35.7647Z" fill="white"/>
<path d="M100.538 35.7647H98.7914L98.2853 34.1979H95.7547L95.2535 35.7647H93.5168L96.107 28.7216H98.0074L100.538 35.7647ZM97.9181 32.9799L97.154 30.6125C97.0977 30.4357 97.058 30.2245 97.0349 29.9789H96.9952C96.9786 30.1852 96.9373 30.3898 96.8711 30.5929L96.0971 32.9799H97.9181Z" fill="white"/>
</svg>
