<svg width="56" height="56" viewBox="0 0 56 56" fill="none" xmlns="http://www.w3.org/2000/svg">
<g filter="url(#filter0_i_829_6473)">
<path d="M17.2142 14.1877C18.0441 13.6332 18.9154 13.1523 19.8183 12.748C22.3791 11.6011 23.6595 11.0277 25.3629 12.1313C27.0663 13.2349 27.0663 15.0452 27.0663 18.6658V21.4658C27.0663 24.9856 27.0663 26.7455 28.1598 27.839C29.2533 28.9324 31.0132 28.9324 34.533 28.9324H37.333C40.9536 28.9324 42.7639 28.9324 43.8675 30.6358C44.9711 32.3393 44.3976 33.6197 43.2508 36.1805C42.8465 37.0833 42.3656 37.9547 41.8111 38.7845C39.8625 41.7008 37.0929 43.9737 33.8526 45.3159C30.6123 46.6581 27.0467 47.0093 23.6067 46.325C20.1668 45.6408 17.007 43.9518 14.527 41.4718C12.0469 38.9917 10.358 35.832 9.67376 32.392C8.98951 28.9521 9.34069 25.3865 10.6829 22.1462C12.0251 18.9058 14.298 16.1363 17.2142 14.1877Z" fill="white"/>
<path d="M45.6317 18.796C44.1163 14.9494 41.0503 11.8833 37.2036 10.368C34.3261 9.23434 31.7324 11.8411 31.7324 14.9339V22.4006C31.7324 23.4315 32.5682 24.2672 33.5991 24.2672H41.0658C44.1586 24.2672 46.7653 21.6736 45.6317 18.796Z" fill="white"/>
</g>
<defs>
<filter id="filter0_i_829_6473" x="0" y="0" width="56" height="56" filterUnits="userSpaceOnUse" color-interpolation-filters="sRGB">
<feFlood flood-opacity="0" result="BackgroundImageFix"/>
<feBlend mode="normal" in="SourceGraphic" in2="BackgroundImageFix" result="shape"/>
<feColorMatrix in="SourceAlpha" type="matrix" values="0 0 0 0 0 0 0 0 0 0 0 0 0 0 0 0 0 0 127 0" result="hardAlpha"/>
<feOffset/>
<feGaussianBlur stdDeviation="4"/>
<feComposite in2="hardAlpha" operator="arithmetic" k2="-1" k3="1"/>
<feColorMatrix type="matrix" values="0 0 0 0 1 0 0 0 0 0.844377 0 0 0 0 0.583333 0 0 0 0.4 0"/>
<feBlend mode="normal" in2="shape" result="effect1_innerShadow_829_6473"/>
</filter>
</defs>
</svg>
