<svg width="56" height="56" viewBox="0 0 56 56" fill="none" xmlns="http://www.w3.org/2000/svg">
<g filter="url(#filter0_i_829_6468)">
<path d="M17.2845 45.5246H16.7993C15.0393 45.5246 14.1594 45.5246 13.6127 44.9779C13.0659 44.4311 13.0659 43.5512 13.0659 41.7913V39.7156C13.0659 38.7478 13.0659 38.2638 13.3145 37.8316C13.5631 37.3995 13.9382 37.1813 14.6882 36.7451C19.6265 33.873 26.6395 32.2562 31.3202 35.048C31.6347 35.2355 31.9175 35.4619 32.1592 35.7334C33.201 36.9036 33.125 38.6697 31.9244 39.7176C31.6709 39.9389 31.4006 40.1067 31.1284 40.165C31.3521 40.1391 31.5665 40.1094 31.771 40.0768C33.4723 39.8054 34.9004 38.8963 36.2078 37.9087L39.5812 35.3604C40.7705 34.462 42.5356 34.4618 43.725 35.36C44.7959 36.1685 45.1233 37.4998 44.4463 38.585C43.6568 39.8505 42.5445 41.4694 41.4765 42.4586C40.4069 43.4493 38.8145 44.3337 37.5145 44.9611C36.0745 45.6562 34.4837 46.0567 32.8656 46.3186C29.5838 46.8498 26.1635 46.7688 22.9151 46.0995C21.0786 45.7212 19.1714 45.5246 17.2845 45.5246Z" fill="white"/>
<path d="M25.874 11.8789C26.8198 10.1823 27.2927 9.33398 27.9997 9.33398C28.7067 9.33398 29.1795 10.1823 30.1253 11.8789L30.37 12.3178C30.6387 12.8 30.7731 13.041 30.9826 13.2001C31.1922 13.3591 31.4531 13.4182 31.975 13.5363L32.4502 13.6438C34.2867 14.0593 35.205 14.2671 35.4235 14.9696C35.6419 15.6722 35.0159 16.4042 33.7639 17.8683L33.4399 18.2471C33.0842 18.6632 32.9063 18.8712 32.8262 19.1285C32.7462 19.3859 32.7731 19.6635 32.8269 20.2186L32.8759 20.7239C33.0652 22.6774 33.1598 23.6541 32.5878 24.0883C32.0159 24.5225 31.1561 24.1266 29.4365 23.3349L28.9916 23.13C28.503 22.905 28.2587 22.7925 27.9997 22.7925C27.7407 22.7925 27.4964 22.905 27.0077 23.13L26.5628 23.3349C24.8433 24.1266 23.9835 24.5225 23.4115 24.0883C22.8396 23.6541 22.9342 22.6774 23.1235 20.7239L23.1725 20.2186C23.2263 19.6635 23.2531 19.3859 23.1731 19.1285C23.0931 18.8712 22.9152 18.6632 22.5594 18.2471L22.2355 17.8683C20.9834 16.4042 20.3574 15.6722 20.5759 14.9696C20.7944 14.2671 21.7126 14.0593 23.5492 13.6438L24.0243 13.5363C24.5462 13.4182 24.8072 13.3591 25.0167 13.2001C25.2262 13.041 25.3606 12.8 25.6294 12.3178L25.874 11.8789Z" fill="white"/>
<path d="M41.8702 19.9398C42.3431 19.0915 42.5795 18.6673 42.933 18.6673C43.2865 18.6673 43.5229 19.0915 43.9958 19.9398L44.1182 20.1592C44.2525 20.4003 44.3197 20.5208 44.4245 20.6004C44.5293 20.6799 44.6597 20.7094 44.9207 20.7685L45.1582 20.8222C46.0765 21.03 46.5357 21.1339 46.6449 21.4851C46.7541 21.8364 46.4411 22.2024 45.8151 22.9345L45.6531 23.1239C45.4752 23.3319 45.3863 23.4359 45.3463 23.5646C45.3063 23.6933 45.3197 23.8321 45.3466 24.1096L45.3711 24.3623C45.4657 25.339 45.5131 25.8274 45.2271 26.0445C44.9411 26.2616 44.5112 26.0636 43.6514 25.6678L43.429 25.5653C43.1847 25.4528 43.0625 25.3966 42.933 25.3966C42.8035 25.3966 42.6814 25.4528 42.437 25.5653L42.2146 25.6678C41.3548 26.0636 40.9249 26.2616 40.6389 26.0445C40.3529 25.8274 40.4003 25.339 40.4949 24.3623L40.5194 24.1096C40.5463 23.8321 40.5597 23.6933 40.5197 23.5646C40.4797 23.4359 40.3908 23.3319 40.2129 23.1239L40.0509 22.9345C39.4249 22.2024 39.1119 21.8364 39.2211 21.4851C39.3303 21.1339 39.7895 21.03 40.7078 20.8222L40.9453 20.7685C41.2063 20.7094 41.3368 20.6799 41.4415 20.6004C41.5463 20.5208 41.6135 20.4003 41.7478 20.1592L41.8702 19.9398Z" fill="white"/>
<path d="M12.0035 19.9398C12.4764 19.0915 12.7128 18.6673 13.0663 18.6673C13.4198 18.6673 13.6563 19.0915 14.1292 19.9398L14.2515 20.1592C14.3859 20.4003 14.4531 20.5208 14.5578 20.6004C14.6626 20.6799 14.7931 20.7094 15.054 20.7685L15.2916 20.8222C16.2099 21.03 16.669 21.1339 16.7782 21.4851C16.8875 21.8364 16.5745 22.2024 15.9484 22.9345L15.7865 23.1239C15.6086 23.3319 15.5196 23.4359 15.4796 23.5646C15.4396 23.6933 15.4531 23.8321 15.4799 24.1096L15.5044 24.3623C15.5991 25.339 15.6464 25.8274 15.3604 26.0445C15.0744 26.2616 14.6445 26.0636 13.7848 25.6678L13.5623 25.5653C13.318 25.4528 13.1958 25.3966 13.0663 25.3966C12.9368 25.3966 12.8147 25.4528 12.5704 25.5653L12.3479 25.6678C11.4881 26.0636 11.0582 26.2616 10.7723 26.0445C10.4863 25.8274 10.5336 25.339 10.6282 24.3623L10.6527 24.1096C10.6796 23.8321 10.6931 23.6933 10.6531 23.5646C10.613 23.4359 10.5241 23.3319 10.3462 23.1239L10.1842 22.9345C9.55822 22.2024 9.24521 21.8364 9.35444 21.4851C9.46368 21.1339 9.92282 21.03 10.8411 20.8222L11.0787 20.7685C11.3396 20.7094 11.4701 20.6799 11.5749 20.6004C11.6796 20.5208 11.7468 20.4003 11.8812 20.1592L12.0035 19.9398Z" fill="white"/>
</g>
<defs>
<filter id="filter0_i_829_6468" x="0" y="0" width="56" height="56" filterUnits="userSpaceOnUse" color-interpolation-filters="sRGB">
<feFlood flood-opacity="0" result="BackgroundImageFix"/>
<feBlend mode="normal" in="SourceGraphic" in2="BackgroundImageFix" result="shape"/>
<feColorMatrix in="SourceAlpha" type="matrix" values="0 0 0 0 0 0 0 0 0 0 0 0 0 0 0 0 0 0 127 0" result="hardAlpha"/>
<feOffset/>
<feGaussianBlur stdDeviation="4"/>
<feComposite in2="hardAlpha" operator="arithmetic" k2="-1" k3="1"/>
<feColorMatrix type="matrix" values="0 0 0 0 1 0 0 0 0 0.844377 0 0 0 0 0.583333 0 0 0 0.4 0"/>
<feBlend mode="normal" in2="shape" result="effect1_innerShadow_829_6468"/>
</filter>
</defs>
</svg>
