<svg width="69" height="68" viewBox="0 0 69 68" fill="none" xmlns="http://www.w3.org/2000/svg">
<g filter="url(#filter0_f_796_8463)">
<path d="M25.2565 49.0222H24.8406C23.3321 49.0222 22.5779 49.0222 22.1093 48.5536C21.6406 48.0849 21.6406 47.3307 21.6406 45.8222V44.0431C21.6406 43.2135 21.6406 42.7987 21.8537 42.4282C22.0668 42.0578 22.3883 41.8708 23.0312 41.4969C27.2639 39.0351 33.2751 37.6493 37.2871 40.0422C37.5567 40.203 37.7991 40.3971 38.0063 40.6298C38.8992 41.6328 38.8342 43.1466 37.805 44.0448C37.5877 44.2345 37.3561 44.3783 37.1228 44.4283C37.3145 44.4061 37.4982 44.3806 37.6735 44.3526C39.1318 44.12 40.3559 43.3408 41.4765 42.4943L44.368 40.31C45.3874 39.54 46.9003 39.5398 47.9199 40.3096C48.8377 41.0027 49.1184 42.1438 48.5381 43.074C47.8614 44.1587 46.908 45.5463 45.9925 46.3942C45.0757 47.2434 43.7108 48.0014 42.5966 48.5392C41.3623 49.135 39.9987 49.4783 38.6117 49.7028C35.7988 50.1581 32.8671 50.0886 30.0827 49.515C28.5087 49.1907 26.8739 49.0222 25.2565 49.0222Z" fill="#FFA206"/>
<path d="M32.6194 20.1814C33.4301 18.7271 33.8354 18 34.4414 18C35.0474 18 35.4527 18.7271 36.2634 20.1814L36.4731 20.5576C36.7035 20.9708 36.8187 21.1775 36.9982 21.3138C37.1778 21.4501 37.4015 21.5007 37.8488 21.602L38.2561 21.6941C39.8303 22.0503 40.6174 22.2284 40.8047 22.8305C40.9919 23.4327 40.4553 24.0602 39.3821 25.3152L39.1045 25.6398C38.7995 25.9964 38.6471 26.1747 38.5785 26.3953C38.5099 26.6159 38.5329 26.8538 38.579 27.3296L38.621 27.7628C38.7832 29.4372 38.8644 30.2744 38.3741 30.6465C37.8839 31.0187 37.1469 30.6794 35.673 30.0007L35.2917 29.8252C34.8728 29.6323 34.6634 29.5359 34.4414 29.5359C34.2194 29.5359 34.01 29.6323 33.5912 29.8252L33.2098 30.0007C31.7359 30.6794 30.999 31.0187 30.5087 30.6465C30.0184 30.2744 30.0996 29.4372 30.2618 27.7628L30.3038 27.3296C30.3499 26.8538 30.373 26.6159 30.3044 26.3953C30.2358 26.1747 30.0833 25.9964 29.7783 25.6398L29.5007 25.3152C28.4275 24.0602 27.8909 23.4327 28.0782 22.8305C28.2654 22.2284 29.0525 22.0503 30.6267 21.6941L31.034 21.602C31.4813 21.5007 31.705 21.4501 31.8846 21.3138C32.0642 21.1775 32.1793 20.9708 32.4097 20.5576L32.6194 20.1814Z" fill="#FFA206"/>
<path d="M46.3304 27.0907C46.7357 26.3636 46.9384 26 47.2414 26C47.5444 26 47.7471 26.3636 48.1524 27.0907L48.2573 27.2788C48.3724 27.4854 48.43 27.5887 48.5198 27.6569C48.6096 27.7251 48.7215 27.7504 48.9451 27.801L49.1488 27.847C49.9359 28.0251 50.3294 28.1142 50.423 28.4153C50.5167 28.7164 50.2484 29.0301 49.7118 29.6576L49.573 29.8199C49.4205 29.9982 49.3442 30.0874 49.3099 30.1977C49.2756 30.308 49.2872 30.4269 49.3102 30.6648L49.3312 30.8814C49.4123 31.7186 49.4529 32.1372 49.2078 32.3233C48.9626 32.5094 48.5942 32.3397 47.8572 32.0004L47.6665 31.9126C47.4571 31.8162 47.3524 31.768 47.2414 31.768C47.1304 31.768 47.0257 31.8162 46.8163 31.9126L46.6256 32.0004C45.8887 32.3397 45.5202 32.5094 45.2751 32.3233C45.0299 32.1372 45.0705 31.7186 45.1516 30.8814L45.1726 30.6648C45.1957 30.4269 45.2072 30.308 45.1729 30.1977C45.1386 30.0874 45.0623 29.9982 44.9099 29.8199L44.771 29.6576C44.2344 29.0301 43.9662 28.7164 44.0598 28.4153C44.1534 28.1142 44.547 28.0251 45.3341 27.847L45.5377 27.801C45.7614 27.7504 45.8732 27.7251 45.963 27.6569C46.0528 27.5887 46.1104 27.4854 46.2256 27.2788L46.3304 27.0907Z" fill="#FFA206"/>
<path d="M20.7304 27.0907C21.1357 26.3636 21.3384 26 21.6414 26C21.9444 26 22.1471 26.3636 22.5524 27.0907L22.6573 27.2788C22.7724 27.4854 22.83 27.5887 22.9198 27.6569C23.0096 27.7251 23.1215 27.7504 23.3451 27.801L23.5488 27.847C24.3359 28.0251 24.7294 28.1142 24.823 28.4153C24.9167 28.7164 24.6484 29.0301 24.1118 29.6576L23.973 29.8199C23.8205 29.9982 23.7442 30.0874 23.7099 30.1977C23.6756 30.308 23.6872 30.4269 23.7102 30.6648L23.7312 30.8814C23.8123 31.7186 23.8529 32.1372 23.6078 32.3233C23.3626 32.5094 22.9942 32.3397 22.2572 32.0004L22.0665 31.9126C21.8571 31.8162 21.7524 31.768 21.6414 31.768C21.5304 31.768 21.4257 31.8162 21.2163 31.9126L21.0256 32.0004C20.2887 32.3397 19.9202 32.5094 19.6751 32.3233C19.4299 32.1372 19.4705 31.7186 19.5516 30.8814L19.5726 30.6648C19.5957 30.4269 19.6072 30.308 19.5729 30.1977C19.5386 30.0874 19.4623 29.9982 19.3099 29.8199L19.171 29.6576C18.6344 29.0301 18.3662 28.7164 18.4598 28.4153C18.5534 28.1142 18.947 28.0251 19.7341 27.847L19.9377 27.801C20.1614 27.7504 20.2732 27.7251 20.363 27.6569C20.4528 27.5887 20.5104 27.4854 20.6256 27.2788L20.7304 27.0907Z" fill="#FFA206"/>
</g>
<g filter="url(#filter1_i_796_8463)">
<path d="M25.6979 49.0222H25.282C23.7735 49.0222 23.0193 49.0222 22.5507 48.5536C22.082 48.0849 22.082 47.3307 22.082 45.8222V44.0431C22.082 43.2135 22.082 42.7987 22.2951 42.4282C22.5082 42.0578 22.8297 41.8708 23.4726 41.4969C27.7053 39.0351 33.7165 37.6493 37.7285 40.0422C37.9981 40.203 38.2405 40.3971 38.4477 40.6298C39.3407 41.6328 39.2756 43.1466 38.2464 44.0448C38.0291 44.2345 37.7975 44.3783 37.5642 44.4283C37.7559 44.4061 37.9396 44.3806 38.115 44.3526C39.5732 44.12 40.7973 43.3408 41.9179 42.4943L44.8094 40.31C45.8288 39.54 47.3417 39.5398 48.3613 40.3096C49.2791 41.0027 49.5598 42.1438 48.9795 43.074C48.3028 44.1587 47.3494 45.5463 46.4339 46.3942C45.5171 47.2434 44.1522 48.0014 43.038 48.5392C41.8037 49.135 40.4401 49.4783 39.0531 49.7028C36.2402 50.1581 33.3085 50.0886 30.5242 49.515C28.9501 49.1907 27.3153 49.0222 25.6979 49.0222Z" fill="#FFA206"/>
<path d="M33.0608 20.1814C33.8715 18.7271 34.2768 18 34.8828 18C35.4888 18 35.8941 18.7271 36.7048 20.1814L36.9145 20.5576C37.1449 20.9708 37.2601 21.1775 37.4396 21.3138C37.6192 21.4501 37.8429 21.5007 38.2902 21.602L38.6975 21.6941C40.2717 22.0503 41.0588 22.2284 41.2461 22.8305C41.4333 23.4327 40.8967 24.0602 39.8236 25.3152L39.5459 25.6398C39.2409 25.9964 39.0885 26.1747 39.0199 26.3953C38.9513 26.6159 38.9743 26.8538 39.0204 27.3296L39.0624 27.7628C39.2247 29.4372 39.3058 30.2744 38.8155 30.6465C38.3253 31.0187 37.5883 30.6794 36.1144 30.0007L35.7331 29.8252C35.3142 29.6323 35.1048 29.5359 34.8828 29.5359C34.6608 29.5359 34.4514 29.6323 34.0326 29.8252L33.6512 30.0007C32.1773 30.6794 31.4404 31.0187 30.9501 30.6465C30.4599 30.2744 30.541 29.4372 30.7032 27.7628L30.7452 27.3296C30.7913 26.8538 30.8144 26.6159 30.7458 26.3953C30.6772 26.1747 30.5247 25.9964 30.2197 25.6398L29.9421 25.3152C28.8689 24.0602 28.3323 23.4327 28.5196 22.8305C28.7068 22.2284 29.4939 22.0503 31.0681 21.6941L31.4754 21.602C31.9227 21.5007 32.1464 21.4501 32.326 21.3138C32.5056 21.1775 32.6207 20.9708 32.8511 20.5576L33.0608 20.1814Z" fill="#FFA206"/>
<path d="M46.7718 27.0907C47.1772 26.3636 47.3798 26 47.6828 26C47.9858 26 48.1885 26.3636 48.5938 27.0907L48.6987 27.2788C48.8138 27.4854 48.8714 27.5887 48.9612 27.6569C49.051 27.7251 49.1629 27.7504 49.3865 27.801L49.5902 27.847C50.3773 28.0251 50.7708 28.1142 50.8644 28.4153C50.9581 28.7164 50.6898 29.0301 50.1532 29.6576L50.0144 29.8199C49.8619 29.9982 49.7856 30.0874 49.7513 30.1977C49.717 30.308 49.7286 30.4269 49.7516 30.6648L49.7726 30.8814C49.8537 31.7186 49.8943 32.1372 49.6492 32.3233C49.404 32.5094 49.0356 32.3397 48.2986 32.0004L48.1079 31.9126C47.8985 31.8162 47.7938 31.768 47.6828 31.768C47.5718 31.768 47.4671 31.8162 47.2577 31.9126L47.067 32.0004C46.3301 32.3397 45.9616 32.5094 45.7165 32.3233C45.4713 32.1372 45.5119 31.7186 45.593 30.8814L45.614 30.6648C45.6371 30.4269 45.6486 30.308 45.6143 30.1977C45.58 30.0874 45.5037 29.9982 45.3513 29.8199L45.2124 29.6576C44.6759 29.0301 44.4076 28.7164 44.5012 28.4153C44.5948 28.1142 44.9884 28.0251 45.7755 27.847L45.9791 27.801C46.2028 27.7504 46.3146 27.7251 46.4044 27.6569C46.4942 27.5887 46.5518 27.4854 46.667 27.2788L46.7718 27.0907Z" fill="#FFA206"/>
<path d="M21.1718 27.0907C21.5772 26.3636 21.7798 26 22.0828 26C22.3858 26 22.5885 26.3636 22.9938 27.0907L23.0987 27.2788C23.2138 27.4854 23.2714 27.5887 23.3612 27.6569C23.451 27.7251 23.5629 27.7504 23.7865 27.801L23.9902 27.847C24.7773 28.0251 25.1708 28.1142 25.2644 28.4153C25.3581 28.7164 25.0898 29.0301 24.5532 29.6576L24.4144 29.8199C24.2619 29.9982 24.1856 30.0874 24.1513 30.1977C24.117 30.308 24.1286 30.4269 24.1516 30.6648L24.1726 30.8814C24.2537 31.7186 24.2943 32.1372 24.0492 32.3233C23.804 32.5094 23.4356 32.3397 22.6986 32.0004L22.5079 31.9126C22.2985 31.8162 22.1938 31.768 22.0828 31.768C21.9718 31.768 21.8671 31.8162 21.6577 31.9126L21.467 32.0004C20.7301 32.3397 20.3616 32.5094 20.1165 32.3233C19.8713 32.1372 19.9119 31.7186 19.993 30.8814L20.014 30.6648C20.0371 30.4269 20.0486 30.308 20.0143 30.1977C19.98 30.0874 19.9037 29.9982 19.7513 29.8199L19.6124 29.6576C19.0759 29.0301 18.8076 28.7164 18.9012 28.4153C18.9948 28.1142 19.3884 28.0251 20.1755 27.847L20.3791 27.801C20.6028 27.7504 20.7146 27.7251 20.8044 27.6569C20.8942 27.5887 20.9518 27.4854 21.067 27.2788L21.1718 27.0907Z" fill="#FFA206"/>
</g>
<defs>
<filter id="filter0_f_796_8463" x="-7.55859" y="-8" width="84" height="84" filterUnits="userSpaceOnUse" color-interpolation-filters="sRGB">
<feFlood flood-opacity="0" result="BackgroundImageFix"/>
<feBlend mode="normal" in="SourceGraphic" in2="BackgroundImageFix" result="shape"/>
<feGaussianBlur stdDeviation="9" result="effect1_foregroundBlur_796_8463"/>
</filter>
<filter id="filter1_i_796_8463" x="10.8828" y="10" width="48" height="48" filterUnits="userSpaceOnUse" color-interpolation-filters="sRGB">
<feFlood flood-opacity="0" result="BackgroundImageFix"/>
<feBlend mode="normal" in="SourceGraphic" in2="BackgroundImageFix" result="shape"/>
<feColorMatrix in="SourceAlpha" type="matrix" values="0 0 0 0 0 0 0 0 0 0 0 0 0 0 0 0 0 0 127 0" result="hardAlpha"/>
<feOffset/>
<feGaussianBlur stdDeviation="4"/>
<feComposite in2="hardAlpha" operator="arithmetic" k2="-1" k3="1"/>
<feColorMatrix type="matrix" values="0 0 0 0 1 0 0 0 0 0.844377 0 0 0 0 0.583333 0 0 0 0.4 0"/>
<feBlend mode="normal" in2="shape" result="effect1_innerShadow_796_8463"/>
</filter>
</defs>
</svg>
