<svg width="62" height="62" viewBox="0 0 62 62" fill="none" xmlns="http://www.w3.org/2000/svg">
<g opacity="0.72" filter="url(#filter0_f_796_8472)">
<path d="M23.682 21.6293C24.2451 21.2531 24.8363 20.9267 25.449 20.6524C27.1867 19.8742 28.0555 19.4851 29.2114 20.2339C30.3673 20.9828 30.3673 22.2112 30.3673 24.668V26.568C30.3673 28.9565 30.3673 30.1507 31.1093 30.8927C31.8513 31.6347 33.0455 31.6347 35.434 31.6347H37.334C39.7908 31.6347 41.0192 31.6347 41.7681 32.7906C42.5169 33.9465 42.1278 34.8153 41.3496 36.553C41.0753 37.1657 40.7489 37.7569 40.3727 38.32C39.0504 40.2989 37.1711 41.8412 34.9723 42.752C32.7735 43.6628 30.354 43.9011 28.0197 43.4368C25.6855 42.9725 23.5414 41.8264 21.8585 40.1435C20.1756 38.4606 19.0295 36.3165 18.5652 33.9823C18.1009 31.648 18.3392 29.2285 19.25 27.0297C20.1607 24.8309 21.7031 22.9516 23.682 21.6293Z" fill="#FFA206"/>
<path d="M42.9648 24.754C41.9366 22.1438 39.856 20.0633 37.2458 19.035C35.2932 18.2657 33.5332 20.0346 33.5332 22.1333V27.2C33.5332 27.8995 34.1003 28.4666 34.7999 28.4666H39.8665C41.9652 28.4666 43.7341 26.7066 42.9648 24.754Z" fill="#FFA206"/>
</g>
<g filter="url(#filter1_i_796_8472)">
<path d="M21.7553 19.1609C22.4666 18.6856 23.2135 18.2734 23.9874 17.9268C26.1824 16.9438 27.2799 16.4523 28.7399 17.3983C30.2 18.3442 30.2 19.8959 30.2 22.9992V25.3992C30.2 28.4162 30.2 29.9247 31.1373 30.862C32.0745 31.7992 33.583 31.7992 36.6 31.7992H39C42.1034 31.7992 43.655 31.7992 44.601 33.2593C45.5469 34.7194 45.0554 35.8169 44.0724 38.0119C43.7258 38.7857 43.3136 39.5326 42.8383 40.2439C41.1681 42.7435 38.7942 44.6917 36.0168 45.8422C33.2394 46.9926 30.1831 47.2937 27.2346 46.7072C24.2861 46.1207 21.5777 44.673 19.452 42.5472C17.3262 40.4215 15.8786 37.7131 15.2921 34.7646C14.7056 31.8161 15.0066 28.7599 16.157 25.9824C17.3075 23.205 19.2557 20.8311 21.7553 19.1609Z" fill="#FFA206"/>
<path d="M46.1129 23.11C44.814 19.8129 42.1859 17.1849 38.8888 15.886C36.4224 14.9143 34.1992 17.1487 34.1992 19.7996V26.1996C34.1992 27.0833 34.9156 27.7996 35.7992 27.7996H42.1992C44.8502 27.7996 47.0845 25.5765 46.1129 23.11Z" fill="#FFA206"/>
</g>
<defs>
<filter id="filter0_f_796_8472" x="-6" y="-6" width="74" height="74" filterUnits="userSpaceOnUse" color-interpolation-filters="sRGB">
<feFlood flood-opacity="0" result="BackgroundImageFix"/>
<feBlend mode="normal" in="SourceGraphic" in2="BackgroundImageFix" result="shape"/>
<feGaussianBlur stdDeviation="9" result="effect1_foregroundBlur_796_8472"/>
</filter>
<filter id="filter1_i_796_8472" x="7" y="7" width="48" height="48" filterUnits="userSpaceOnUse" color-interpolation-filters="sRGB">
<feFlood flood-opacity="0" result="BackgroundImageFix"/>
<feBlend mode="normal" in="SourceGraphic" in2="BackgroundImageFix" result="shape"/>
<feColorMatrix in="SourceAlpha" type="matrix" values="0 0 0 0 0 0 0 0 0 0 0 0 0 0 0 0 0 0 127 0" result="hardAlpha"/>
<feOffset/>
<feGaussianBlur stdDeviation="4"/>
<feComposite in2="hardAlpha" operator="arithmetic" k2="-1" k3="1"/>
<feColorMatrix type="matrix" values="0 0 0 0 1 0 0 0 0 0.844377 0 0 0 0 0.583333 0 0 0 0.4 0"/>
<feBlend mode="normal" in2="shape" result="effect1_innerShadow_796_8472"/>
</filter>
</defs>
</svg>
