<svg width="68" height="70" viewBox="0 0 68 70" fill="none" xmlns="http://www.w3.org/2000/svg">
<g filter="url(#filter0_f_796_8456)">
<path d="M49.9999 27.8597L49.9999 27.9758C49.9999 29.353 49.9998 30.0416 49.6683 30.605C49.3368 31.1683 48.7349 31.5028 47.531 32.1716L46.2617 32.8768C47.1364 29.9197 47.4282 26.7426 47.5361 24.0256C47.5407 23.9091 47.5459 23.7911 47.5512 23.6719L47.5549 23.5885C48.5969 23.9503 49.182 24.2201 49.547 24.7265C50 25.3551 50 26.19 49.9999 27.8597Z" fill="#FFA206"/>
<path d="M18 27.8597L18 27.9758C18 29.353 18.0001 30.0416 18.3316 30.605C18.6631 31.1683 19.265 31.5028 20.4689 32.1716L21.7389 32.8772C20.8641 29.92 20.5723 26.7427 20.4644 24.0256C20.4598 23.9091 20.4546 23.7911 20.4493 23.6719L20.4456 23.5883C19.4032 23.9502 18.818 24.22 18.453 24.7265C17.9999 25.3551 18 26.19 18 27.8597Z" fill="#FFA206"/>
<path fill-rule="evenodd" clip-rule="evenodd" d="M34.0002 18C36.8539 18 39.2049 18.2513 41.0034 18.5548C42.8254 18.8622 43.7364 19.0159 44.4975 19.9533C45.2587 20.8908 45.2184 21.904 45.138 23.9304C44.8618 30.8871 43.3605 39.5764 35.2 40.3451V46H37.4883C38.251 46 38.9077 46.5383 39.0572 47.2862L39.36 48.8H43.6C44.2627 48.8 44.8 49.3373 44.8 50C44.8 50.6627 44.2627 51.2 43.6 51.2H24.4C23.7373 51.2 23.2 50.6627 23.2 50C23.2 49.3373 23.7373 48.8 24.4 48.8H28.64L28.9428 47.2862C29.0923 46.5383 29.749 46 30.5117 46H32.8V40.3451C24.6399 39.5761 23.1387 30.887 22.8625 23.9304C22.7821 21.904 22.7418 20.8908 23.503 19.9533C24.2641 19.0159 25.1751 18.8622 26.9971 18.5548C28.7956 18.2513 31.1466 18 34.0002 18ZM35.5238 24.7182L35.3665 24.436C34.7585 23.3453 34.4545 22.8 34 22.8C33.5455 22.8 33.2415 23.3453 32.6335 24.436L32.4762 24.7182C32.3035 25.0281 32.2171 25.1831 32.0824 25.2853C31.9477 25.3876 31.7799 25.4256 31.4444 25.5015L31.139 25.5706C29.9583 25.8377 29.368 25.9713 29.2276 26.4229C29.0871 26.8745 29.4896 27.3452 30.2944 28.2864L30.5027 28.5299C30.7314 28.7973 30.8458 28.9311 30.8972 29.0965C30.9487 29.2619 30.9314 29.4404 30.8968 29.7972L30.8653 30.1221C30.7436 31.3779 30.6828 32.0058 31.0505 32.2849C31.4182 32.564 31.9709 32.3095 33.0763 31.8006L33.3623 31.6689C33.6764 31.5242 33.8335 31.4519 34 31.4519C34.1665 31.4519 34.3236 31.5242 34.6377 31.6689L34.9237 31.8006C36.0291 32.3095 36.5818 32.564 36.9495 32.2849C37.3172 32.0058 37.2564 31.3779 37.1347 30.1221L37.1032 29.7972C37.0686 29.4404 37.0513 29.2619 37.1028 29.0965C37.1542 28.9311 37.2686 28.7973 37.4973 28.5299L37.7056 28.2864C38.5104 27.3452 38.9129 26.8745 38.7724 26.4229C38.632 25.9713 38.0417 25.8377 36.861 25.5706L36.5556 25.5015C36.2201 25.4256 36.0523 25.3876 35.9176 25.2853C35.7829 25.1831 35.6965 25.0281 35.5238 24.7182Z" fill="#FFA206"/>
</g>
<g filter="url(#filter1_i_796_8456)">
<path d="M49.7206 27.8597L49.7206 27.9758C49.7206 29.353 49.7206 30.0416 49.389 30.605C49.0575 31.1683 48.4556 31.5028 47.2517 32.1716L45.9824 32.8768C46.8571 29.9197 47.1489 26.7426 47.2568 24.0256C47.2614 23.9091 47.2666 23.7911 47.2719 23.6719L47.2756 23.5885C48.3176 23.9503 48.9027 24.2201 49.2677 24.7265C49.7207 25.3551 49.7207 26.19 49.7206 27.8597Z" fill="#FFA206"/>
<path d="M17.7207 27.8597L17.7207 27.9758C17.7207 29.353 17.7208 30.0416 18.0523 30.605C18.3838 31.1683 18.9857 31.5028 20.1896 32.1716L21.4596 32.8772C20.5848 29.92 20.293 26.7427 20.1851 24.0256C20.1805 23.9091 20.1753 23.7911 20.17 23.6719L20.1663 23.5883C19.1239 23.9502 18.5387 24.22 18.1737 24.7265C17.7206 25.3551 17.7207 26.19 17.7207 27.8597Z" fill="#FFA206"/>
<path fill-rule="evenodd" clip-rule="evenodd" d="M33.7209 18C36.5746 18 38.9256 18.2513 40.7241 18.5548C42.5461 18.8622 43.4571 19.0159 44.2182 19.9533C44.9794 20.8908 44.9391 21.904 44.8587 23.9304C44.5825 30.8871 43.0812 39.5764 34.9207 40.3451V46H37.209C37.9717 46 38.6284 46.5383 38.7779 47.2862L39.0807 48.8H43.3207C43.9834 48.8 44.5207 49.3373 44.5207 50C44.5207 50.6627 43.9834 51.2 43.3207 51.2H24.1207C23.458 51.2 22.9207 50.6627 22.9207 50C22.9207 49.3373 23.458 48.8 24.1207 48.8H28.3607L28.6635 47.2862C28.813 46.5383 29.4697 46 30.2324 46H32.5207V40.3451C24.3606 39.5761 22.8594 30.887 22.5832 23.9304C22.5028 21.904 22.4625 20.8908 23.2237 19.9533C23.9848 19.0159 24.8958 18.8622 26.7178 18.5548C28.5163 18.2513 30.8673 18 33.7209 18ZM35.2445 24.7182L35.0872 24.436C34.4792 23.3453 34.1752 22.8 33.7207 22.8C33.2662 22.8 32.9622 23.3453 32.3542 24.436L32.1969 24.7182C32.0242 25.0281 31.9378 25.1831 31.8031 25.2853C31.6684 25.3876 31.5006 25.4256 31.1651 25.5015L30.8597 25.5706C29.679 25.8377 29.0887 25.9713 28.9483 26.4229C28.8078 26.8745 29.2103 27.3452 30.0152 28.2864L30.2234 28.5299C30.4521 28.7973 30.5665 28.9311 30.6179 29.0965C30.6694 29.2619 30.6521 29.4404 30.6175 29.7972L30.586 30.1221C30.4643 31.3779 30.4035 32.0058 30.7712 32.2849C31.1389 32.564 31.6916 32.3095 32.797 31.8006L33.083 31.6689C33.3971 31.5242 33.5542 31.4519 33.7207 31.4519C33.8872 31.4519 34.0443 31.5242 34.3584 31.6689L34.6444 31.8006C35.7498 32.3095 36.3025 32.564 36.6702 32.2849C37.0379 32.0058 36.9771 31.3779 36.8554 30.1221L36.8239 29.7972C36.7893 29.4404 36.772 29.2619 36.8235 29.0965C36.8749 28.9311 36.9893 28.7973 37.218 28.5299L37.4263 28.2864C38.2311 27.3452 38.6336 26.8745 38.4931 26.4229C38.3527 25.9713 37.7624 25.8377 36.5817 25.5706L36.2763 25.5015C35.9408 25.4256 35.773 25.3876 35.6383 25.2853C35.5036 25.1831 35.4173 25.0281 35.2445 24.7182Z" fill="#FFA206"/>
</g>
<defs>
<filter id="filter0_f_796_8456" x="-8" y="-8" width="84" height="84" filterUnits="userSpaceOnUse" color-interpolation-filters="sRGB">
<feFlood flood-opacity="0" result="BackgroundImageFix"/>
<feBlend mode="normal" in="SourceGraphic" in2="BackgroundImageFix" result="shape"/>
<feGaussianBlur stdDeviation="9" result="effect1_foregroundBlur_796_8456"/>
</filter>
<filter id="filter1_i_796_8456" x="9.7207" y="10" width="48" height="48" filterUnits="userSpaceOnUse" color-interpolation-filters="sRGB">
<feFlood flood-opacity="0" result="BackgroundImageFix"/>
<feBlend mode="normal" in="SourceGraphic" in2="BackgroundImageFix" result="shape"/>
<feColorMatrix in="SourceAlpha" type="matrix" values="0 0 0 0 0 0 0 0 0 0 0 0 0 0 0 0 0 0 127 0" result="hardAlpha"/>
<feOffset/>
<feGaussianBlur stdDeviation="4"/>
<feComposite in2="hardAlpha" operator="arithmetic" k2="-1" k3="1"/>
<feColorMatrix type="matrix" values="0 0 0 0 1 0 0 0 0 0.844377 0 0 0 0 0.583333 0 0 0 0.4 0"/>
<feBlend mode="normal" in2="shape" result="effect1_innerShadow_796_8456"/>
</filter>
</defs>
</svg>
