<svg width="46" height="46" viewBox="0 0 46 46" fill="none" xmlns="http://www.w3.org/2000/svg">
<path d="M43.8334 27.166L37.7105 22.7575C34.5288 20.4667 30.1807 20.7035 27.2666 23.3262L18.7336 31.0059C15.8195 33.6285 11.4713 33.8653 8.28968 31.5745L2.16675 27.166M10.5001 43.8327H35.5001C40.1025 43.8327 43.8334 40.1017 43.8334 35.4993V10.4993C43.8334 5.89698 40.1025 2.16602 35.5001 2.16602H10.5001C5.89771 2.16602 2.16675 5.89698 2.16675 10.4993V35.4993C2.16675 40.1017 5.89771 43.8327 10.5001 43.8327ZM20.9167 15.7077C20.9167 18.5842 18.5849 20.916 15.7084 20.916C12.8319 20.916 10.5001 18.5842 10.5001 15.7077C10.5001 12.8312 12.8319 10.4993 15.7084 10.4993C18.5849 10.4993 20.9167 12.8312 20.9167 15.7077Z" stroke="white" stroke-width="3.125" stroke-linecap="round"/>
</svg>
