<svg width="56" height="56" viewBox="0 0 56 56" fill="none" xmlns="http://www.w3.org/2000/svg">
<path d="M14.8945 23.6786C11.1875 22.1958 9.33398 21.4544 9.33398 20.5331C9.33398 19.6118 11.1875 18.8704 14.8945 17.3876L20.1369 15.2906C23.8439 13.8078 25.6974 13.0664 28.0007 13.0664C30.3039 13.0664 32.1574 13.8078 35.8644 15.2906L41.1068 17.3876C44.8138 18.8704 46.6673 19.6118 46.6673 20.5331C46.6673 21.4544 44.8138 22.1958 41.1068 23.6786L35.8644 25.7755C32.1574 27.2583 30.3039 27.9997 28.0007 27.9997C25.6974 27.9997 23.8439 27.2583 20.1369 25.7755L14.8945 23.6786Z" fill="#0068C9"/>
<path fill-rule="evenodd" clip-rule="evenodd" d="M9.33398 20.5331C9.33398 21.4544 11.1875 22.1958 14.8945 23.6786L20.1369 25.7755C23.8439 27.2583 25.6974 27.9997 28.0007 27.9997C30.3039 27.9997 32.1574 27.2583 35.8644 25.7755L41.1068 23.6786C44.8138 22.1958 46.6673 21.4544 46.6673 20.5331C46.6673 19.6118 44.8138 18.8704 41.1068 17.3876L35.8644 15.2906C32.1574 13.8078 30.3039 13.0664 28.0007 13.0664C25.6974 13.0664 23.8439 13.8078 20.1369 15.2906L14.8945 17.3876C11.1875 18.8704 9.33398 19.6118 9.33398 20.5331Z" fill="#0068C9"/>
<path d="M41.1068 31.1452L35.8644 33.2422C32.1574 34.725 30.3039 35.4664 28.0007 35.4664C25.6974 35.4664 23.8439 34.725 20.1369 33.2422L14.8945 31.1452C11.1875 29.6624 9.33398 28.921 9.33398 27.9997C9.33398 27.1693 10.84 26.485 13.8521 25.2721L19.7153 27.6174C23.1661 28.9984 25.335 29.8664 28.0007 29.8664C30.6663 29.8664 32.8352 28.9984 36.286 27.6174L42.1492 25.2721C45.1613 26.485 46.6673 27.1693 46.6673 27.9997C46.6673 28.921 44.8138 29.6624 41.1068 31.1452Z" fill="#0068C9"/>
<path d="M41.1068 38.6116L35.8644 40.7085C32.1574 42.1913 30.3039 42.9327 28.0007 42.9327C25.6974 42.9327 23.8439 42.1913 20.1369 40.7085L14.8945 38.6116C11.1875 37.1288 9.33398 36.3874 9.33398 35.4661C9.33398 34.6356 10.84 33.9513 13.8521 32.7384L19.7153 35.0837C23.1661 36.4648 25.335 37.3327 28.0007 37.3327C30.6663 37.3327 32.8352 36.4648 36.286 35.0837L42.1492 32.7384C45.1613 33.9513 46.6673 34.6356 46.6673 35.4661C46.6673 36.3874 44.8138 37.1288 41.1068 38.6116Z" fill="#0068C9"/>
</svg>
