<svg width="62" height="62" viewBox="0 0 62 62" fill="none" xmlns="http://www.w3.org/2000/svg">
<rect width="62" height="62" rx="8" fill="#CFE8FF"/>
<path d="M36.4678 32.0874L35.9212 32.6308C35.9212 32.6308 34.6221 33.9226 31.0761 30.3967C27.5301 26.8708 28.8292 25.5791 28.8292 25.5791L29.1734 25.2369C30.0213 24.3938 30.1012 23.0403 29.3615 22.0522L27.8483 20.0309C26.9327 18.8079 25.1635 18.6463 24.1141 19.6898L22.2306 21.5626C21.7103 22.08 21.3616 22.7507 21.4039 23.4947C21.512 25.3982 22.3732 29.4936 27.1788 34.2719C32.275 39.3391 37.0566 39.5404 39.0119 39.3582C39.6304 39.3005 40.1683 38.9855 40.6017 38.5545L42.3064 36.8596C43.4571 35.7154 43.1326 33.7539 41.6604 32.9536L39.3678 31.7073C38.4011 31.1818 37.2233 31.3362 36.4678 32.0874Z" fill="#0068C9"/>
</svg>
