<svg width="62" height="62" viewBox="0 0 62 62" fill="none" xmlns="http://www.w3.org/2000/svg">
<rect width="62" height="62" rx="8" fill="#CFE8FF"/>
<path d="M31 43.0012C37.6274 43.0012 43 40.5835 43 37.6012C43 36.0812 41.6045 34.7079 39.3585 33.7266C37.988 36.2416 35.8981 38.4094 33.2434 39.5438C31.8165 40.1536 30.1835 40.1536 28.7566 39.5438C26.1019 38.4094 24.012 36.2416 22.6415 33.7266C20.3955 34.7079 19 36.0812 19 37.6012C19 40.5835 24.3726 43.0012 31 43.0012Z" fill="#0068C9"/>
<path fill-rule="evenodd" clip-rule="evenodd" d="M22.5996 26.8176C22.5996 22.5 26.3604 19 30.9996 19C35.6388 19 39.3996 22.5 39.3996 26.8176C39.3996 31.1012 36.7186 36.0999 32.5357 37.8875C31.5606 38.3042 30.4386 38.3042 29.4635 37.8875C25.2806 36.0999 22.5996 31.1012 22.5996 26.8176ZM30.9996 29.8C32.3251 29.8 33.3996 28.7255 33.3996 27.4C33.3996 26.0745 32.3251 25 30.9996 25C29.6741 25 28.5996 26.0745 28.5996 27.4C28.5996 28.7255 29.6741 29.8 30.9996 29.8Z" fill="#0068C9"/>
</svg>
