<svg width="62" height="62" viewBox="0 0 62 62" fill="none" xmlns="http://www.w3.org/2000/svg">
<rect width="62" height="62" rx="8" fill="#CFE8FF"/>
<path fill-rule="evenodd" clip-rule="evenodd" d="M20.4059 22.8063C19 24.2122 19 26.4749 19 31.0004C19 35.5259 19 37.7886 20.4059 39.1945C21.8118 40.6004 24.0745 40.6004 28.6 40.6004H33.4C37.9255 40.6004 40.1882 40.6004 41.5941 39.1945C43 37.7886 43 35.5259 43 31.0004C43 26.4749 43 24.2122 41.5941 22.8063C40.1882 21.4004 37.9255 21.4004 33.4 21.4004H28.6C24.0745 21.4004 21.8118 21.4004 20.4059 22.8063ZM38.8914 25.6242C39.2096 26.0061 39.158 26.5736 38.7762 26.8918L36.1404 29.0883C35.0768 29.9747 34.2147 30.6931 33.4538 31.1825C32.6612 31.6922 31.8893 32.0142 31 32.0142C30.1107 32.0142 29.3388 31.6922 28.5462 31.1825C27.7853 30.6931 26.9233 29.9747 25.8596 29.0883L23.2238 26.8918C22.842 26.5736 22.7904 26.0061 23.1086 25.6242C23.4268 25.2424 23.9943 25.1908 24.3762 25.509L26.9668 27.6679C28.0864 28.6008 28.8637 29.2465 29.5199 29.6685C30.1551 30.0771 30.5859 30.2142 31 30.2142C31.4141 30.2142 31.8449 30.0771 32.4801 29.6685C33.1363 29.2465 33.9136 28.6008 35.0332 27.6679L37.6238 25.509C38.0057 25.1908 38.5732 25.2424 38.8914 25.6242Z" fill="#0068C9"/>
</svg>
