<svg width="56" height="56" viewBox="0 0 56 56" fill="none" xmlns="http://www.w3.org/2000/svg">
<path fill-rule="evenodd" clip-rule="evenodd" d="M28.0003 35.4654C35.2168 35.4654 41.0669 29.6152 41.0669 22.3987C41.0669 15.1822 35.2168 9.33203 28.0003 9.33203C20.7837 9.33203 14.9336 15.1822 14.9336 22.3987C14.9336 29.6152 20.7837 35.4654 28.0003 35.4654ZM28.0003 16.7987C27.47 16.7987 27.1154 17.4349 26.406 18.7074L26.2225 19.0366C26.021 19.3982 25.9202 19.579 25.763 19.6983C25.6059 19.8176 25.4102 19.8618 25.0188 19.9504L24.6624 20.031C23.285 20.3427 22.5963 20.4985 22.4324 21.0254C22.2686 21.5523 22.7381 22.1014 23.6771 23.1995L23.9201 23.4835C24.1869 23.7956 24.3203 23.9516 24.3803 24.1446C24.4404 24.3376 24.4202 24.5458 24.3799 24.9621L24.3431 25.3412C24.2012 26.8062 24.1302 27.5388 24.5591 27.8644C24.9881 28.1901 25.633 27.8932 26.9226 27.2994L27.2563 27.1457C27.6228 26.977 27.806 26.8926 28.0003 26.8926C28.1945 26.8926 28.3777 26.977 28.7442 27.1457L29.0779 27.2994C30.3676 27.8932 31.0124 28.1901 31.4414 27.8644C31.8704 27.5388 31.7994 26.8062 31.6574 25.3412L31.6207 24.9621C31.5803 24.5458 31.5602 24.3376 31.6202 24.1446C31.6802 23.9516 31.8136 23.7956 32.0805 23.4836L32.3234 23.1995C33.2624 22.1014 33.732 21.5523 33.5681 21.0254C33.4043 20.4985 32.7155 20.3427 31.3381 20.031L30.9818 19.9504C30.5903 19.8618 30.3946 19.8176 30.2375 19.6983C30.0804 19.579 29.9796 19.3982 29.778 19.0366L29.5945 18.7074C28.8852 17.4349 28.5305 16.7987 28.0003 16.7987Z" fill="#0068C9"/>
<path d="M18.8411 35.3574L18.134 37.9363C16.9611 42.2144 16.3747 44.3535 17.1573 45.5245C17.4315 45.9349 17.7995 46.2643 18.2264 46.4817C19.4446 47.102 21.3256 46.1219 25.0875 44.1617C26.3392 43.5094 26.9651 43.1833 27.6301 43.1125C27.8766 43.0862 28.125 43.0862 28.3715 43.1125C29.0365 43.1833 29.6623 43.5094 30.914 44.1616C34.676 46.1219 36.5569 47.102 37.7752 46.4817C38.2021 46.2643 38.57 45.9349 38.8443 45.5245C39.6269 44.3535 39.0404 42.2144 37.8675 37.9363L37.1605 35.3574C34.573 37.1899 31.4127 38.2668 28.0008 38.2668C24.5889 38.2668 21.4285 37.1899 18.8411 35.3574Z" fill="#0068C9"/>
</svg>
