<svg width="48" height="54" viewBox="0 0 48 54" fill="none" xmlns="http://www.w3.org/2000/svg">
<path fill-rule="evenodd" clip-rule="evenodd" d="M1.00671 8.55374C0 9.98806 0 14.2515 0 22.7784V26.9776C0 42.0125 11.3039 49.3086 18.3962 52.4067C20.32 53.2471 21.282 53.6673 24 53.6673C26.718 53.6673 27.68 53.2471 29.6038 52.4067C36.6961 49.3086 48 42.0125 48 26.9776V22.7784C48 14.2515 48 9.98806 46.9933 8.55374C45.9866 7.11942 41.9778 5.7472 33.9602 3.00277L32.4327 2.4799C28.2534 1.04929 26.1637 0.333984 24 0.333984C21.8363 0.333984 19.7466 1.04929 15.5673 2.4799L14.0398 3.00276C6.0222 5.7472 2.01342 7.11942 1.00671 8.55374ZM28 35.0006C28 36.4734 26.8061 37.6673 25.3333 37.6673H22.6667C21.1939 37.6673 20 36.4734 20 35.0006V31.2637C17.6088 29.8805 16 27.2951 16 24.334C16 19.9157 19.5817 16.334 24 16.334C28.4183 16.334 32 19.9157 32 24.334C32 27.2951 30.3912 29.8805 28 31.2637V35.0006Z" fill="#0068C9"/>
</svg>
