<svg width="80" height="80" viewBox="0 0 80 80" fill="none" xmlns="http://www.w3.org/2000/svg">
<rect width="80" height="80" rx="10" fill="white"/>
<path d="M62.2309 48.5039H17.7517V58.8406H62.2309C63.6016 58.8406 64.9162 58.2961 65.8854 57.3268C66.8547 56.3575 67.3992 55.043 67.3992 53.6722C67.3992 52.3015 66.8547 50.9869 65.8854 50.0177C64.9162 49.0484 63.6016 48.5039 62.2309 48.5039Z" fill="#645A84"/>
<path d="M62.2309 48.5039H17.7517V58.8406H62.2309C63.6016 58.8406 64.9162 58.2961 65.8854 57.3268C66.8547 56.3575 67.3992 55.043 67.3992 53.6722C67.3992 52.3015 66.8547 50.9869 65.8854 50.0177C64.9162 49.0484 63.6016 48.5039 62.2309 48.5039Z" fill="#645A84"/>
<path d="M17.7517 58.8406C20.6061 58.8406 22.92 56.5266 22.92 53.6722C22.92 50.8178 20.6061 48.5039 17.7517 48.5039C14.8973 48.5039 12.5834 50.8178 12.5834 53.6722C12.5834 56.5266 14.8973 58.8406 17.7517 58.8406Z" fill="#D7D7FF"/>
<path d="M17.7517 56.3266C19.1756 56.3266 20.33 55.1722 20.33 53.7483C20.33 52.3243 19.1756 51.1699 17.7517 51.1699C16.3277 51.1699 15.1733 52.3243 15.1733 53.7483C15.1733 55.1722 16.3277 56.3266 17.7517 56.3266Z" fill="#919BC0"/>
<path d="M57.4242 38.168H23.3109V48.5046H57.4242C58.795 48.5046 60.1096 47.9601 61.0788 46.9909C62.0481 46.0216 62.5926 44.707 62.5926 43.3363C62.5926 41.9656 62.0481 40.651 61.0788 39.6817C60.1096 38.7125 58.795 38.168 57.4242 38.168Z" fill="#645A84"/>
<path d="M23.3109 48.5046C26.1653 48.5046 28.4792 46.1907 28.4792 43.3363C28.4792 40.4819 26.1653 38.168 23.3109 38.168C20.4565 38.168 18.1426 40.4819 18.1426 43.3363C18.1426 46.1907 20.4565 48.5046 23.3109 48.5046Z" fill="#D7D7FF"/>
<path d="M23.3109 45.9848C24.7349 45.9848 25.8892 44.8304 25.8892 43.4065C25.8892 41.9825 24.7349 40.8281 23.3109 40.8281C21.8869 40.8281 20.7325 41.9825 20.7325 43.4065C20.7325 44.8304 21.8869 45.9848 23.3109 45.9848Z" fill="#919BC0"/>
<path d="M57.4651 38.168H35.2226C35.016 38.1672 34.8114 38.2072 34.6203 38.2857C34.4292 38.3643 34.2556 38.4797 34.1092 38.6255C33.9629 38.7713 33.8468 38.9445 33.7676 39.1353C33.6884 39.3261 33.6476 39.5306 33.6476 39.7371V46.9296C33.6476 47.1365 33.6883 47.3413 33.7675 47.5324C33.8466 47.7235 33.9626 47.8971 34.1089 48.0433C34.2551 48.1896 34.4288 48.3056 34.6199 48.3848C34.8109 48.4639 35.0158 48.5046 35.2226 48.5046H57.4651C58.8358 48.5046 60.1504 47.9601 61.1196 46.9909C62.0889 46.0216 62.6334 44.707 62.6334 43.3363C62.6334 41.9656 62.0889 40.651 61.1196 39.6817C60.1504 38.7125 58.8358 38.168 57.4651 38.168Z" fill="#B4B9DE"/>
<path d="M61.8458 40.5829C61.3824 39.8392 60.7368 39.226 59.9702 38.8013C59.2036 38.3767 58.3413 38.1547 57.465 38.1563H35.2225C35.0162 38.1555 34.8118 38.1956 34.6211 38.2741C34.4304 38.3527 34.2571 38.4683 34.1112 38.6141C33.9653 38.76 33.8498 38.9333 33.7712 39.124C33.6926 39.3148 33.6526 39.5191 33.6533 39.7254V40.5829H61.8458Z" fill="#D7D7FF"/>
<path d="M33.6242 43.541V46.9418C33.6234 47.1481 33.6634 47.3525 33.742 47.5433C33.8206 47.734 33.9362 47.9073 34.082 48.0531C34.2279 48.199 34.4012 48.3146 34.5919 48.3931C34.7826 48.4717 34.987 48.5118 35.1933 48.511H57.4358C58.7723 48.5119 60.057 47.9945 61.0199 47.0676C61.9827 46.1407 62.5485 44.8766 62.5983 43.541H33.6242Z" fill="#A0A5DE"/>
<path d="M52.6467 38.168H35.2226C35.016 38.1672 34.8114 38.2072 34.6203 38.2857C34.4292 38.3643 34.2556 38.4797 34.1092 38.6255C33.9629 38.7713 33.8468 38.9445 33.7676 39.1353C33.6884 39.3261 33.6476 39.5306 33.6476 39.7371V46.9296C33.6476 47.1365 33.6883 47.3413 33.7675 47.5324C33.8466 47.7235 33.9626 47.8971 34.1089 48.0433C34.2551 48.1896 34.4288 48.3056 34.6199 48.3848C34.8109 48.4639 35.0158 48.5046 35.2226 48.5046H52.6467C54.0175 48.5046 55.3321 47.9601 56.3013 46.9909C57.2706 46.0216 57.8151 44.707 57.8151 43.3363C57.8151 41.9656 57.2706 40.651 56.3013 39.6817C55.3321 38.7125 54.0175 38.168 52.6467 38.168Z" fill="#919BC0"/>
<path d="M33.6476 43.5V46.9183C33.6476 47.1252 33.6883 47.33 33.7675 47.5211C33.8466 47.7121 33.9626 47.8858 34.1089 48.032C34.2551 48.1783 34.4288 48.2943 34.6199 48.3734C34.8109 48.4526 35.0158 48.4933 35.2226 48.4933H52.6467C53.9861 48.4925 55.2727 47.9712 56.2349 47.0395C57.1971 46.1078 57.7595 44.8386 57.8034 43.5H33.6476Z" fill="#787DA7"/>
<path d="M37.8767 38.168H33.6476V48.5046H37.8767C39.2475 48.5046 40.5621 47.9601 41.5313 46.9909C42.5006 46.0216 43.0451 44.707 43.0451 43.3363C43.0451 41.9656 42.5006 40.651 41.5313 39.6817C40.5621 38.7125 39.2475 38.168 37.8767 38.168Z" fill="#B4B9DE"/>
<path d="M42.2692 40.5829C41.8067 39.8396 41.1621 39.2267 40.3965 38.802C39.6309 38.3774 38.7697 38.1551 37.8942 38.1563H33.665V40.5829H42.2692Z" fill="#D7D7FF"/>
<path d="M33.665 43.459V48.5107H37.8884C39.2386 48.511 40.5351 47.9823 41.5002 47.038C42.4652 46.0937 43.0219 44.8089 43.0509 43.459H33.665Z" fill="#A0A5DE"/>
<path d="M33.6476 48.5046C36.502 48.5046 38.8159 46.1907 38.8159 43.3363C38.8159 40.4819 36.502 38.168 33.6476 38.168C30.7932 38.168 28.4792 40.4819 28.4792 43.3363C28.4792 46.1907 30.7932 48.5046 33.6476 48.5046Z" fill="#D7D7FF"/>
<path d="M33.6475 45.9848C35.0715 45.9848 36.2259 44.8304 36.2259 43.4065C36.2259 41.9825 35.0715 40.8281 33.6475 40.8281C32.2236 40.8281 31.0692 41.9825 31.0692 43.4065C31.0692 44.8304 32.2236 45.9848 33.6475 45.9848Z" fill="#919BC0"/>
<path d="M52.6001 27.8242H30.3576C29.9399 27.8242 29.5393 27.9902 29.2439 28.2855C28.9485 28.5809 28.7826 28.9815 28.7826 29.3992V36.5917C28.7826 36.7986 28.8233 37.0034 28.9025 37.1944C28.9816 37.3855 29.0976 37.5592 29.2439 37.7054C29.3902 37.8517 29.5638 37.9677 29.7549 38.0468C29.946 38.126 30.1508 38.1667 30.3576 38.1667H52.6001C53.9415 38.1217 55.213 37.5571 56.146 36.5922C57.079 35.6273 57.6006 34.3377 57.6006 32.9955C57.6006 31.6533 57.079 30.3636 56.146 29.3987C55.213 28.4338 53.9415 27.8693 52.6001 27.8242Z" fill="#B4B9DE"/>
<path d="M28.7826 33.1914V38.0739C28.7826 38.2081 27.1259 38.1672 52.6001 38.1672C53.9371 38.1667 55.2218 37.648 56.1845 36.7201C57.1471 35.7923 57.7128 34.5275 57.7626 33.1914H28.7826Z" fill="#A0A5DE"/>
<path d="M47.7818 27.8242H30.3576C29.9399 27.8242 29.5393 27.9902 29.2439 28.2855C28.9485 28.5809 28.7826 28.9815 28.7826 29.3992V36.5917C28.7826 36.7986 28.8233 37.0034 28.9025 37.1944C28.9816 37.3855 29.0976 37.5592 29.2439 37.7054C29.3902 37.8517 29.5638 37.9677 29.7549 38.0468C29.946 38.126 30.1508 38.1667 30.3576 38.1667H47.7818C49.1232 38.1217 50.3946 37.5571 51.3277 36.5922C52.2607 35.6273 52.7822 34.3377 52.7822 32.9955C52.7822 31.6533 52.2607 30.3636 51.3277 29.3987C50.3946 28.4338 49.1232 27.8693 47.7818 27.8242Z" fill="#919BC0"/>
<path d="M28.8 33.1738V36.5922C28.8 36.799 28.8408 37.0038 28.9199 37.1949C28.9991 37.386 29.1151 37.5596 29.2614 37.7059C29.4076 37.8521 29.5812 37.9681 29.7723 38.0473C29.9634 38.1264 30.1682 38.1672 30.375 38.1672H47.7934C49.1333 38.1664 50.4206 37.6453 51.3837 36.7138C52.3468 35.7822 52.9105 34.513 52.9559 33.1738H28.8Z" fill="#787DA7"/>
<path d="M33.0001 27.8252H28.7826V38.1677H33.0001C33.6938 38.191 34.3851 38.0745 35.0329 37.8251C35.6806 37.5757 36.2716 37.1985 36.7705 36.716C37.2695 36.2335 37.6663 35.6556 37.9373 35.0166C38.2083 34.3775 38.348 33.6905 38.348 32.9964C38.348 32.3023 38.2083 31.6153 37.9373 30.9763C37.6663 30.3373 37.2695 29.7593 36.7705 29.2768C36.2716 28.7943 35.6806 28.4172 35.0329 28.1678C34.3851 27.9184 33.6938 27.8019 33.0001 27.8252Z" fill="#B4B9DE"/>
<path d="M28.7826 33.1094V38.1669H33.0001C34.3514 38.1657 35.6486 37.6359 36.6144 36.6908C37.5802 35.7457 38.138 34.4603 38.1684 33.1094H28.7826Z" fill="#A0A5DE"/>
<path d="M28.7826 38.1609C31.637 38.1609 33.9509 35.8469 33.9509 32.9926C33.9509 30.1382 31.637 27.8242 28.7826 27.8242C25.9282 27.8242 23.6143 30.1382 23.6143 32.9926C23.6143 35.8469 25.9282 38.1609 28.7826 38.1609Z" fill="#D7D7FF"/>
<path d="M28.7826 35.6469C30.2065 35.6469 31.3609 34.4925 31.3609 33.0686C31.3609 31.6446 30.2065 30.4902 28.7826 30.4902C27.3586 30.4902 26.2042 31.6446 26.2042 33.0686C26.2042 34.4925 27.3586 35.6469 28.7826 35.6469Z" fill="#919BC0"/>
<path d="M28.0942 58.8406C30.9486 58.8406 33.2626 56.5266 33.2626 53.6722C33.2626 50.8178 30.9486 48.5039 28.0942 48.5039C25.2398 48.5039 22.9259 50.8178 22.9259 53.6722C22.9259 56.5266 25.2398 58.8406 28.0942 58.8406Z" fill="#D7D7FF"/>
<path d="M28.0942 56.3266C29.5182 56.3266 30.6725 55.1722 30.6725 53.7483C30.6725 52.3243 29.5182 51.1699 28.0942 51.1699C26.6702 51.1699 25.5159 52.3243 25.5159 53.7483C25.5159 55.1722 26.6702 56.3266 28.0942 56.3266Z" fill="#919BC0"/>
<path d="M62.2484 48.5039H40C39.5823 48.5039 39.1817 48.6698 38.8864 48.9652C38.591 49.2606 38.425 49.6612 38.425 50.0789V57.2714C38.425 57.478 38.4658 57.6825 38.5451 57.8732C38.6243 58.064 38.7404 58.2373 38.8867 58.383C39.033 58.5288 39.2067 58.6443 39.3978 58.7228C39.5888 58.8013 39.7935 58.8413 40 58.8406H62.2484C63.6191 58.8406 64.9337 58.2961 65.9029 57.3268C66.8722 56.3575 67.4167 55.043 67.4167 53.6722C67.4167 52.3015 66.8722 50.9869 65.9029 50.0177C64.9337 49.0484 63.6191 48.5039 62.2484 48.5039Z" fill="#B4B9DE"/>
<path d="M66.6292 50.9364C66.1652 50.1927 65.5197 49.5793 64.7533 49.1537C63.9869 48.7282 63.125 48.5046 62.2484 48.5039H40C39.5823 48.5039 39.1817 48.6698 38.8864 48.9652C38.591 49.2606 38.425 49.6612 38.425 50.0789V50.9364H66.6292Z" fill="#D7D7FF"/>
<path d="M38.4076 53.877V57.2778C38.4076 57.4846 38.4483 57.6894 38.5275 57.8805C38.6066 58.0716 38.7226 58.2452 38.8689 58.3915C39.0152 58.5377 39.1888 58.6537 39.3799 58.7329C39.571 58.812 39.7758 58.8528 39.9826 58.8528H62.2251C63.1792 58.8546 64.1152 58.5916 64.9288 58.0932C65.7423 57.5947 66.4017 56.8803 66.8334 56.0295C66.9468 55.8027 67.0002 55.5508 66.9888 55.2975C66.9774 55.0443 66.9015 54.7982 66.7683 54.5826C66.635 54.3669 66.4489 54.1889 66.2275 54.0654C66.0062 53.9419 65.7569 53.8771 65.5034 53.877H38.4076Z" fill="#A0A5DE"/>
<path d="M57.4242 48.5039H40C39.5823 48.5039 39.1817 48.6698 38.8864 48.9652C38.591 49.2606 38.425 49.6612 38.425 50.0789V57.2714C38.425 57.478 38.4658 57.6825 38.5451 57.8732C38.6243 58.064 38.7404 58.2373 38.8867 58.383C39.033 58.5288 39.2067 58.6443 39.3978 58.7228C39.5888 58.8013 39.7935 58.8413 40 58.8406H57.4242C58.7949 58.8406 60.1095 58.2961 61.0788 57.3268C62.048 56.3575 62.5926 55.043 62.5926 53.6722C62.5926 52.3015 62.048 50.9869 61.0788 50.0177C60.1095 49.0484 58.7949 48.5039 57.4242 48.5039Z" fill="#919BC0"/>
<path d="M38.4309 53.8535V57.2719C38.4309 57.688 38.5962 58.0871 38.8905 58.3814C39.1848 58.6757 39.5839 58.841 40.0001 58.841H57.4242C58.3715 58.8416 59.3007 58.5818 60.1103 58.0901C60.92 57.5983 61.5789 56.8935 62.0151 56.0527C62.1303 55.8205 62.1843 55.5627 62.172 55.3038C62.1597 55.0448 62.0815 54.7933 61.9448 54.5731C61.8081 54.3529 61.6174 54.1712 61.3908 54.0452C61.1643 53.9193 60.9093 53.8533 60.6501 53.8535H38.4309Z" fill="#787DA7"/>
<path d="M42.6542 48.5039H38.4309V58.8406H42.6542C44.025 58.8406 45.3396 58.2961 46.3088 57.3268C47.2781 56.3575 47.8226 55.043 47.8226 53.6722C47.8226 52.3015 47.2781 50.9869 46.3088 50.0177C45.3396 49.0484 44.025 48.5039 42.6542 48.5039Z" fill="#B4B9DE"/>
<path d="M47.0351 50.9364C46.5711 50.1927 45.9255 49.5793 45.1592 49.1537C44.3928 48.7282 43.5308 48.5046 42.6542 48.5039H38.4309V50.9364H47.0351Z" fill="#D7D7FF"/>
<path d="M38.4834 53.7948V58.8523H42.7067C43.8878 58.8507 45.0326 58.4446 45.9506 57.7016C46.8687 56.9587 47.5046 55.9237 47.7526 54.769C47.7788 54.6496 47.7778 54.5259 47.7498 54.4069C47.7218 54.2879 47.6674 54.1767 47.5908 54.0816C47.5141 53.9864 47.417 53.9096 47.3067 53.857C47.1963 53.8043 47.0756 53.7771 46.9534 53.7773L38.4834 53.7948Z" fill="#A0A5DE"/>
<path d="M38.4309 58.8406C41.2853 58.8406 43.5992 56.5266 43.5992 53.6722C43.5992 50.8178 41.2853 48.5039 38.4309 48.5039C35.5765 48.5039 33.2626 50.8178 33.2626 53.6722C33.2626 56.5266 35.5765 58.8406 38.4309 58.8406Z" fill="#D7D7FF"/>
<path d="M38.4309 56.3266C39.8548 56.3266 41.0092 55.1722 41.0092 53.7483C41.0092 52.3243 39.8548 51.1699 38.4309 51.1699C37.0069 51.1699 35.8525 52.3243 35.8525 53.7483C35.8525 55.1722 37.0069 56.3266 38.4309 56.3266Z" fill="#919BC0"/>
<path d="M56.631 50.0625H51.3751C50.8629 50.0625 50.4476 50.4778 50.4476 50.99V50.9958C50.4476 51.5081 50.8629 51.9233 51.3751 51.9233H56.631C57.1432 51.9233 57.5585 51.5081 57.5585 50.9958V50.99C57.5585 50.4778 57.1432 50.0625 56.631 50.0625Z" fill="#B4BEE3"/>
<path d="M51.3401 39.6387H46.0842C45.572 39.6387 45.1567 40.0539 45.1567 40.5662V40.572C45.1567 41.0842 45.572 41.4995 46.0842 41.4995H51.3401C51.8523 41.4995 52.2676 41.0842 52.2676 40.572V40.5662C52.2676 40.0539 51.8523 39.6387 51.3401 39.6387Z" fill="#B4BEE3"/>
<path d="M46.8601 29.5645H41.6043C41.092 29.5645 40.6768 29.9797 40.6768 30.492V30.4978C40.6768 31.01 41.092 31.4253 41.6043 31.4253H46.8601C47.3723 31.4253 47.7876 31.01 47.7876 30.4978V30.492C47.7876 29.9797 47.3723 29.5645 46.8601 29.5645Z" fill="#B4BEE3"/>
</svg>
