<svg width="80" height="80" viewBox="0 0 80 80" fill="none" xmlns="http://www.w3.org/2000/svg">
<rect width="80" height="80" rx="10" fill="white"/>
<g clip-path="url(#clip0_1183_2940)">
<path d="M23.1498 43.3353L15.3044 50.8003L32.5068 58.2656L39.5406 47.1594L23.1498 43.3353Z" fill="#BED0E0"/>
<mask id="mask0_1183_2940" style="mask-type:luminance" maskUnits="userSpaceOnUse" x="12" y="12" width="56" height="56">
<path d="M12 12.0002H67.9998V68H12V12.0002Z" fill="white"/>
</mask>
<g mask="url(#mask0_1183_2940)">
<path d="M51.2586 61.5273L66.2117 35.8365C66.827 34.7845 67.1796 33.56 67.1796 32.2533C67.1796 28.327 63.9967 25.1442 60.0705 25.1442C59.1997 25.1442 58.1622 25.4228 57.3911 25.7093L45.0312 36.063L38.5918 48.2372L51.2586 61.5273Z" fill="#BED0E0"/>
<path d="M60.0703 25.1442C59.4005 25.1442 58.6326 25.3091 57.9627 25.5156C60.7767 26.4624 62.8045 29.1202 62.8045 32.2532C62.8045 33.56 62.4519 34.7845 61.8366 35.8365L48.5422 58.6774L51.2584 61.5273L66.2116 35.8365C66.8268 34.7845 67.1795 33.56 67.1795 32.2532C67.1795 28.327 63.9966 25.1442 60.0703 25.1442Z" fill="#AEC2D4"/>
<path d="M40.3014 46.2852L58.6538 24.1893L58.6539 24.1894C59.5435 23.0024 60.0704 21.5279 60.0704 19.9305C60.0704 16.0042 56.8875 12.8213 52.9613 12.8213C51.0908 12.8213 49.389 13.5437 48.1197 14.7248L48.1201 14.7251L26.1138 32.7897L40.3014 46.2852Z" fill="#BED0E0"/>
<path d="M52.9614 12.8213C52.219 12.8212 51.4811 12.9375 50.7747 13.1661C53.6299 14.0891 55.6956 16.7679 55.6956 19.9305C55.6956 21.528 55.1686 23.0024 54.279 24.1894L37.8574 43.9604L40.3015 46.2852L58.6539 24.1894C59.5435 23.0024 60.0705 21.528 60.0705 19.9305C60.0705 16.0041 56.8876 12.8213 52.9614 12.8213Z" fill="#AEC2D4"/>
<path d="M32.5069 50.1172C27.0706 50.1172 22.6636 45.7103 22.6636 40.2739C22.6636 34.8377 27.0706 30.4307 32.5069 30.4307C37.9431 30.4307 42.35 34.8377 42.35 40.2739C42.35 45.7103 37.9431 50.1172 32.5069 50.1172Z" fill="#E8F4FF"/>
<path d="M32.5068 47.3828C28.587 47.3828 25.3979 44.1938 25.3979 40.2739C25.3979 36.3541 28.587 33.1651 32.5068 33.1651C36.4266 33.1651 39.6157 36.3541 39.6157 40.2739C39.6157 44.1938 36.4266 47.3828 32.5068 47.3828Z" fill="#889AA8"/>
<path d="M32.5066 33.1651C31.7638 33.1649 31.0256 33.2816 30.3191 33.5109C33.1717 34.4359 35.2405 37.1172 35.2405 40.274C35.2405 43.4307 33.1717 46.1121 30.3191 47.037C31.0256 47.2663 31.7638 47.383 32.5066 47.3828C36.4265 47.3828 39.6155 44.1938 39.6155 40.274C39.6155 36.3541 36.4265 33.1651 32.5066 33.1651Z" fill="#768A99"/>
<path d="M22.6636 67.1797C17.2273 67.1797 12.8203 62.7728 12.8203 57.3364C12.8203 51.9002 17.2273 47.4932 22.6636 47.4932C28.0998 47.4932 32.5069 51.9002 32.5069 57.3364C32.5069 62.7728 28.0998 67.1797 22.6636 67.1797Z" fill="#E8F4FF"/>
<path d="M22.6635 64.4453C18.7437 64.4453 15.5547 61.2563 15.5547 57.3364C15.5547 53.4166 18.7437 50.2276 22.6635 50.2276C26.5834 50.2276 29.7724 53.4166 29.7724 57.3364C29.7724 61.2563 26.5834 64.4453 22.6635 64.4453Z" fill="#889AA8"/>
<path d="M22.6636 50.2276C21.9208 50.2274 21.1826 50.3441 20.4761 50.5734C23.3287 51.4984 25.3975 54.1797 25.3975 57.3365C25.3975 60.4932 23.3287 63.1746 20.4761 64.0995C21.1826 64.3288 21.9208 64.4455 22.6636 64.4453C26.5834 64.4453 29.7725 61.2563 29.7725 57.3365C29.7725 53.4166 26.5834 50.2276 22.6636 50.2276Z" fill="#768A99"/>
<path d="M42.35 67.1797C36.9138 67.1797 32.5068 62.7728 32.5068 57.3364C32.5068 51.9002 36.9138 47.4932 42.35 47.4932C47.7863 47.4932 52.1933 51.9002 52.1933 57.3364C52.1933 62.7728 47.7863 67.1797 42.35 67.1797Z" fill="#E8F4FF"/>
<path d="M42.3501 64.4453C38.4302 64.4453 35.2412 61.2563 35.2412 57.3364C35.2412 53.4166 38.4302 50.2276 42.3501 50.2276C46.2699 50.2276 49.4589 53.4166 49.4589 57.3364C49.4589 61.2563 46.2699 64.4453 42.3501 64.4453Z" fill="#889AA8"/>
<path d="M42.3501 50.2276C41.6073 50.2274 40.8691 50.3441 40.1626 50.5734C43.0151 51.4984 45.0839 54.1797 45.0839 57.3365C45.0839 60.4932 43.0151 63.1746 40.1626 64.0995C40.8691 64.3288 41.6073 64.4455 42.3501 64.4453C46.2699 64.4453 49.4589 61.2563 49.4589 57.3365C49.4589 53.4166 46.2699 50.2276 42.3501 50.2276Z" fill="#768A99"/>
</g>
</g>
<defs>
<clipPath id="clip0_1183_2940">
<rect width="56" height="56" fill="white" transform="translate(12 12)"/>
</clipPath>
</defs>
</svg>
