<svg width="36" height="36" viewBox="0 0 36 36" fill="none" xmlns="http://www.w3.org/2000/svg">
<rect width="36" height="36" rx="8" fill="#E5F3FF"/>
<path fill-rule="evenodd" clip-rule="evenodd" d="M20.3077 18C20.3077 19.2745 19.2745 20.3077 18 20.3077C16.7255 20.3077 15.6923 19.2745 15.6923 18C15.6923 16.7255 16.7255 15.6923 18 15.6923C19.2745 15.6923 20.3077 16.7255 20.3077 18ZM19.5385 18C19.5385 18.8497 18.8497 19.5385 18 19.5385C17.1503 19.5385 16.4615 18.8497 16.4615 18C16.4615 17.1503 17.1503 16.4615 18 16.4615C18.8497 16.4615 19.5385 17.1503 19.5385 18Z" fill="#0068C9"/>
<path fill-rule="evenodd" clip-rule="evenodd" d="M21.8272 18.3846C21.6468 20.2017 20.2017 21.6468 18.3846 21.8272V23.4875C18.6145 23.6205 18.7692 23.8691 18.7692 24.1538C18.7692 24.5787 18.4248 24.9231 18 24.9231C17.5752 24.9231 17.2308 24.5787 17.2308 24.1538C17.2308 23.8691 17.3855 23.6205 17.6154 23.4875V21.8272C15.7983 21.6468 14.3532 20.2017 14.1728 18.3846H12.5125C12.3795 18.6145 12.1309 18.7692 11.8462 18.7692C11.4213 18.7692 11.0769 18.4248 11.0769 18C11.0769 17.5752 11.4213 17.2308 11.8462 17.2308C12.1309 17.2308 12.3795 17.3855 12.5125 17.6154H14.1728C14.3532 15.7983 15.7983 14.3532 17.6154 14.1728V12.5125C17.3855 12.3795 17.2308 12.1309 17.2308 11.8462C17.2308 11.4213 17.5752 11.0769 18 11.0769C18.4248 11.0769 18.7692 11.4213 18.7692 11.8462C18.7692 12.1309 18.6145 12.3795 18.3846 12.5125V14.1728C20.2017 14.3532 21.6468 15.7983 21.8272 17.6154H23.4875C23.6205 17.3855 23.8691 17.2308 24.1538 17.2308C24.5787 17.2308 24.9231 17.5752 24.9231 18C24.9231 18.4248 24.5787 18.7692 24.1538 18.7692C23.8691 18.7692 23.6205 18.6145 23.4875 18.3846H21.8272ZM18 21.0769C19.6993 21.0769 21.0769 19.6993 21.0769 18C21.0769 16.3007 19.6993 14.9231 18 14.9231C16.3007 14.9231 14.9231 16.3007 14.9231 18C14.9231 19.6993 16.3007 21.0769 18 21.0769Z" fill="#0068C9"/>
<path fill-rule="evenodd" clip-rule="evenodd" d="M18 28C23.5228 28 28 23.5228 28 18C28 12.4772 23.5228 8 18 8C12.4772 8 8 12.4772 8 18C8 23.5228 12.4772 28 18 28ZM18 27.2308C23.098 27.2308 27.2308 23.098 27.2308 18C27.2308 12.902 23.098 8.76923 18 8.76923C12.902 8.76923 8.76923 12.902 8.76923 18C8.76923 23.098 12.902 27.2308 18 27.2308Z" fill="#0068C9"/>
</svg>
