<svg width="36" height="36" viewBox="0 0 36 36" fill="none" xmlns="http://www.w3.org/2000/svg">
<rect width="36" height="36" rx="8" fill="#E5F3FF"/>
<path fill-rule="evenodd" clip-rule="evenodd" d="M25.7368 8C24.6185 8 23.7119 8.92019 23.7119 10.0553C23.7119 11.1904 24.6185 12.1106 25.7368 12.1106C26.8551 12.1106 27.7617 11.1904 27.7617 10.0553C27.7617 8.92019 26.8551 8 25.7368 8ZM24.5219 10.0553C24.5219 9.37423 25.0658 8.82212 25.7368 8.82212C26.4078 8.82212 26.9517 9.37423 26.9517 10.0553C26.9517 10.7364 26.4078 11.2885 25.7368 11.2885C25.0658 11.2885 24.5219 10.7364 24.5219 10.0553Z" fill="#0068C9"/>
<path fill-rule="evenodd" clip-rule="evenodd" d="M11.5615 8.75853L15.1229 10.8456V14.5445L18.2805 16.3949V17.0065C18.5654 16.5354 19.0776 16.2212 19.6621 16.2212C20.5568 16.2212 21.282 16.9574 21.282 17.8654C21.282 18.7735 20.5568 19.5097 19.6621 19.5097C19.0776 19.5097 18.5654 19.1954 18.2805 18.7243V19.8401L21.1987 21.5502L24.4385 19.6516L28 21.7387V25.9129L24.4385 28L21.1987 26.1014L17.9589 28L14.7602 26.1255L11.5615 28L8 25.9129V21.7387L11.1576 19.8883V16.8702L8 15.0198V10.8456L11.5615 8.75853ZM17.4706 19.9378L14.7602 21.5261L11.9675 19.8896V16.8696L14.719 15.2571L17.4706 16.8696V19.9378ZM11.3876 20.7028L8.80996 22.2134V25.4383L11.5615 27.0507L14.313 25.4383V22.2583L11.3876 20.7028ZM15.2074 22.5619V25.4383L17.9589 27.0507L20.7104 25.4383V22.2134L18.0922 20.6791L15.2074 22.5619ZM8.80996 11.3203V14.5452L11.5615 16.1576L14.313 14.5452V11.3203L11.5615 9.70783L8.80996 11.3203ZM21.687 22.2134V25.4383L24.4385 27.0507L27.19 25.4383V22.2134L24.4385 20.6009L21.687 22.2134ZM18.8522 17.8654C18.8522 17.4114 19.2148 17.0433 19.6621 17.0433C20.1094 17.0433 20.4721 17.4114 20.4721 17.8654C20.4721 18.3195 20.1094 18.6876 19.6621 18.6876C19.2148 18.6876 18.8522 18.3195 18.8522 17.8654Z" fill="#0068C9"/>
<path fill-rule="evenodd" clip-rule="evenodd" d="M19.6621 13.7548C19.6621 12.3927 20.75 11.2885 22.092 11.2885C23.434 11.2885 24.5219 12.3927 24.5219 13.7548C24.5219 15.117 23.434 16.2212 22.092 16.2212C20.75 16.2212 19.6621 15.117 19.6621 13.7548ZM22.092 12.1106C21.1973 12.1106 20.4721 12.8468 20.4721 13.7548C20.4721 14.6629 21.1973 15.3991 22.092 15.3991C22.9866 15.3991 23.7119 14.6629 23.7119 13.7548C23.7119 12.8468 22.9866 12.1106 22.092 12.1106Z" fill="#0068C9"/>
<path fill-rule="evenodd" clip-rule="evenodd" d="M15.6123 12.1106C15.6123 11.2025 16.3376 10.4664 17.2322 10.4664C18.1269 10.4664 18.8522 11.2025 18.8522 12.1106C18.8522 13.0187 18.1269 13.7548 17.2322 13.7548C16.3376 13.7548 15.6123 13.0187 15.6123 12.1106ZM17.2322 11.2885C16.7849 11.2885 16.4223 11.6566 16.4223 12.1106C16.4223 12.5646 16.7849 12.9327 17.2322 12.9327C17.6796 12.9327 18.0422 12.5646 18.0422 12.1106C18.0422 11.6566 17.6796 11.2885 17.2322 11.2885Z" fill="#0068C9"/>
</svg>
