<svg width="36" height="36" viewBox="0 0 36 36" fill="none" xmlns="http://www.w3.org/2000/svg">
<rect width="36" height="36" rx="8" fill="#E5F3FF"/>
<path d="M19.1652 10.636C20.8963 8.94821 23.2442 8 25.6923 8V8.9C23.489 8.9 21.3759 9.75339 19.8179 11.2724C18.2599 12.7915 17.3846 14.8517 17.3846 17C17.3846 19.1483 18.2599 21.2085 19.8179 22.7276C21.3759 24.2466 23.489 25.1 25.6923 25.1V26C23.2442 26 20.8963 25.0518 19.1652 23.364C17.4341 21.6761 16.4615 19.3869 16.4615 17C16.4615 14.6131 17.4341 12.3239 19.1652 10.636Z" fill="#0068C9"/>
<path d="M21.3409 12.7574C22.495 11.6321 24.0602 11 25.6923 11V11.84C24.2887 11.84 22.9426 12.3836 21.9501 13.3513C20.9576 14.319 20.4 15.6315 20.4 17C20.4 18.3685 20.9576 19.681 21.9501 20.6487C22.9426 21.6164 24.2887 22.16 25.6923 22.16V23C24.0602 23 22.495 22.3679 21.3409 21.2426C20.1868 20.1174 19.5385 18.5913 19.5385 17C19.5385 15.4087 20.1868 13.8826 21.3409 12.7574Z" fill="#0068C9"/>
<path d="M13.6099 17L12.3434 15.7652L12.8873 15.2348L14.6978 17L12.8873 18.7652L12.3434 18.2348L13.6099 17Z" fill="#0068C9"/>
<path d="M12.6154 17.375H8V16.625H12.6154V17.375Z" fill="#0068C9"/>
<path d="M23.6566 18.2348L22.3901 17L23.6566 15.7652L23.1127 15.2348L21.3022 17L23.1127 18.7652L23.6566 18.2348Z" fill="#0068C9"/>
<path d="M28 16.625H23.3846V17.375H28V16.625Z" fill="#0068C9"/>
</svg>
