<svg width="56" height="56" viewBox="0 0 56 56" fill="none" xmlns="http://www.w3.org/2000/svg">
<g filter="url(#filter0_i_829_6464)">
<path d="M46.6662 20.837L46.6662 20.9724C46.6662 22.5791 46.6662 23.3825 46.2794 24.0398C45.8927 24.697 45.1904 25.0872 43.7859 25.8675L42.305 26.6902C43.3255 23.2403 43.6659 19.5337 43.7918 16.3638C43.7972 16.2279 43.8032 16.0903 43.8094 15.9513L43.8137 15.8539C45.0294 16.276 45.712 16.5908 46.1378 17.1816C46.6663 17.9149 46.6663 18.8889 46.6662 20.837Z" fill="white"/>
<path d="M9.33301 20.837L9.33301 20.9724C9.33306 22.5791 9.33308 23.3825 9.71983 24.0398C10.1066 24.697 10.8088 25.0872 12.2134 25.8675L13.695 26.6907C12.6745 23.2407 12.334 19.5339 12.2081 16.3638C12.2027 16.2279 12.1967 16.0903 12.1905 15.9513L12.1862 15.8536C10.9701 16.2759 10.2874 16.5907 9.86145 17.1816C9.33293 17.9149 9.33296 18.889 9.33301 20.837Z" fill="white"/>
<path fill-rule="evenodd" clip-rule="evenodd" d="M28 9.33398C31.3292 9.33398 34.0721 9.62722 36.1703 9.98124C38.2959 10.3399 39.3588 10.5192 40.2468 11.6129C41.1348 12.7065 41.0878 13.8886 40.994 16.2527C40.6718 24.369 38.9203 34.5065 29.3997 35.4033V42.0007H32.0694C32.9592 42.0007 33.7253 42.6287 33.8998 43.5012L34.253 45.2673H39.1997C39.9729 45.2673 40.5997 45.8941 40.5997 46.6673C40.5997 47.4405 39.9729 48.0673 39.1997 48.0673H16.7997C16.0265 48.0673 15.3997 47.4405 15.3997 46.6673C15.3997 45.8941 16.0265 45.2673 16.7997 45.2673H21.7463L22.0996 43.5012C22.2741 42.6287 23.0402 42.0007 23.93 42.0007H26.5997V35.4032C17.0796 34.5061 15.3282 24.3688 15.0059 16.2527C14.9121 13.8886 14.8652 12.7065 15.7532 11.6129C16.6412 10.5192 17.704 10.3399 19.8296 9.98124C21.9279 9.62722 24.6707 9.33398 28 9.33398ZM29.7774 17.1719L29.5939 16.8427C28.8846 15.5702 28.5299 14.934 27.9997 14.934C27.4694 14.934 27.1148 15.5702 26.4054 16.8427L26.2219 17.1719C26.0204 17.5335 25.9196 17.7143 25.7624 17.8336C25.6053 17.9528 25.4096 17.9971 25.0182 18.0857L24.6618 18.1663C23.2844 18.478 22.5957 18.6338 22.4318 19.1607C22.268 19.6876 22.7375 20.2367 23.6765 21.3347L23.9195 21.6188C24.1863 21.9309 24.3197 22.0869 24.3798 22.2799C24.4398 22.4729 24.4196 22.6811 24.3793 23.0974L24.3425 23.4764C24.2006 24.9415 24.1296 25.6741 24.5586 25.9997C24.9875 26.3254 25.6324 26.0285 26.9221 25.4346L27.2557 25.281C27.6222 25.1123 27.8054 25.0279 27.9997 25.0279C28.1939 25.0279 28.3772 25.1123 28.7436 25.281L29.0773 25.4346C30.367 26.0284 31.0118 26.3254 31.4408 25.9997C31.8698 25.6741 31.7988 24.9415 31.6568 23.4764L31.6201 23.0974C31.5797 22.6811 31.5596 22.4729 31.6196 22.2799C31.6796 22.0869 31.813 21.9309 32.0799 21.6188L32.3228 21.3347C33.2619 20.2367 33.7314 19.6876 33.5675 19.1607C33.4037 18.6338 32.715 18.478 31.3375 18.1663L30.9812 18.0857C30.5898 17.9971 30.394 17.9528 30.2369 17.8336C30.0798 17.7143 29.979 17.5335 29.7774 17.1719Z" fill="white"/>
</g>
<defs>
<filter id="filter0_i_829_6464" x="0" y="0" width="56" height="56" filterUnits="userSpaceOnUse" color-interpolation-filters="sRGB">
<feFlood flood-opacity="0" result="BackgroundImageFix"/>
<feBlend mode="normal" in="SourceGraphic" in2="BackgroundImageFix" result="shape"/>
<feColorMatrix in="SourceAlpha" type="matrix" values="0 0 0 0 0 0 0 0 0 0 0 0 0 0 0 0 0 0 127 0" result="hardAlpha"/>
<feOffset/>
<feGaussianBlur stdDeviation="4"/>
<feComposite in2="hardAlpha" operator="arithmetic" k2="-1" k3="1"/>
<feColorMatrix type="matrix" values="0 0 0 0 1 0 0 0 0 0.844377 0 0 0 0 0.583333 0 0 0 0.4 0"/>
<feBlend mode="normal" in2="shape" result="effect1_innerShadow_829_6464"/>
</filter>
</defs>
</svg>
